<?xml version="1.0" standalone="no"?>
<!DOCTYPE svg PUBLIC "-//W3C//DTD SVG 20010904//EN"
 "http://www.w3.org/TR/2001/REC-SVG-20010904/DTD/svg10.dtd">
<svg version="1.0" xmlns="http://www.w3.org/2000/svg"
 width="640.000000pt" height="1308.000000pt" viewBox="0 0 640.000000 1308.000000"
 preserveAspectRatio="xMidYMid meet">

<g transform="translate(0.000000,1308.000000) scale(0.100000,-0.100000)"
fill="#000000" stroke="none">
<path d="M3041 12072 c-1 -7 -7 -12 -13 -11 -26 3 -37 -1 -66 -26 -17 -14 -36
-24 -43 -23 -7 2 -15 -8 -18 -21 -4 -16 -18 -28 -40 -36 -19 -6 -38 -21 -42
-33 -5 -12 -16 -22 -26 -22 -10 -1 -27 -15 -38 -33 -14 -21 -30 -33 -48 -35
-19 -2 -31 -11 -37 -28 -6 -14 -23 -30 -40 -35 -16 -6 -28 -16 -27 -22 2 -12
-36 -11 -40 1 -2 4 -34 6 -72 4 l-68 -4 -49 54 c-150 163 -213 206 -323 218
-82 8 -132 -7 -183 -56 -37 -34 -53 -59 -23 -34 9 7 18 10 22 7 3 -4 17 3 31
13 25 20 92 28 92 11 0 -6 16 -7 35 -4 24 4 44 0 70 -16 20 -11 43 -21 51 -21
8 0 14 -4 14 -8 0 -5 11 -14 25 -20 14 -6 25 -17 25 -24 0 -10 -2 -10 -9 1 -7
11 -13 11 -32 0 -20 -11 -21 -14 -6 -17 9 -2 17 -10 17 -17 0 -8 10 -21 22
-29 12 -9 18 -19 14 -23 -5 -5 -11 -2 -13 5 -3 6 -9 12 -15 12 -6 0 -7 -7 -4
-15 8 -23 -41 -40 -76 -27 -17 6 -30 7 -34 1 -3 -5 0 -9 6 -9 25 0 -3 -18 -57
-38 -73 -28 -182 -81 -165 -82 6 0 12 -7 12 -15 0 -8 7 -15 16 -15 10 0 14 -7
12 -22 -3 -21 1 -22 41 -19 32 2 42 -1 39 -11 -6 -19 -79 -53 -105 -49 -7 1
-9 -7 -6 -19 4 -16 -3 -24 -38 -39 -24 -11 -36 -20 -26 -20 38 -2 9 -26 -31
-26 -22 0 -43 -3 -47 -7 -4 -4 -14 -1 -22 7 -11 12 -19 12 -34 4 -12 -6 -27
-8 -36 -5 -9 4 -13 1 -10 -6 2 -7 10 -12 17 -10 8 2 9 -5 5 -19 -6 -19 -4 -21
19 -17 16 3 26 1 26 -7 0 -18 -47 -58 -60 -50 -6 4 -20 -1 -31 -11 -18 -16
-20 -16 -37 -1 -23 21 -32 21 -47 0 -7 -9 -25 -16 -44 -15 -17 0 -31 -3 -31
-8 0 -4 -11 -11 -24 -14 -14 -3 -45 -22 -70 -41 -26 -19 -50 -35 -56 -35 -5 0
-15 -10 -21 -22 -7 -14 -14 -18 -16 -11 -3 8 -14 4 -31 -13 -15 -14 -39 -32
-53 -41 -39 -23 -79 -95 -86 -152 -3 -28 -13 -57 -22 -65 -16 -15 -20 -16 -46
-16 -8 0 -15 -6 -15 -14 0 -7 -9 -25 -20 -39 -11 -14 -17 -32 -14 -41 3 -9 -4
-34 -15 -57 -18 -33 -19 -40 -6 -36 13 6 18 -1 17 -23 0 -3 -3 -20 -7 -39 -5
-23 -4 -31 4 -27 17 11 13 -5 -9 -41 -11 -18 -25 -33 -32 -33 -7 0 -27 -14
-45 -32 -32 -31 -33 -31 -48 -12 -8 10 -15 28 -15 39 0 15 -3 16 -12 7 -9 -9
-9 -15 0 -24 7 -7 12 -25 12 -40 0 -15 5 -28 10 -28 16 0 12 -37 -6 -54 -14
-15 -14 -16 4 -16 18 0 64 32 63 44 -2 17 0 19 10 9 15 -15 3 -63 -16 -63 -18
0 -18 -5 -4 -31 8 -15 7 -24 -2 -35 -6 -8 -10 -16 -8 -17 2 -1 18 -12 36 -25
18 -12 37 -22 43 -22 7 0 8 -6 2 -17 -13 -26 -22 -104 -11 -97 5 3 9 -6 9 -20
0 -14 -4 -26 -10 -26 -5 0 -10 5 -10 11 0 5 -5 7 -11 3 -8 -5 -8 -9 1 -14 17
-10 23 -73 11 -116 -10 -37 3 -48 15 -12 3 12 13 29 22 37 13 14 14 12 8 -22
-4 -23 -3 -37 3 -37 21 0 24 -70 5 -112 -10 -22 -17 -53 -16 -69 1 -16 -8 -59
-21 -96 -30 -86 -40 -140 -28 -147 5 -4 12 7 16 24 13 59 21 28 17 -66 -3 -54
0 -100 5 -105 7 -7 11 10 12 48 1 32 8 87 16 123 32 151 41 166 64 105 10 -30
10 -40 -3 -67 -17 -33 -13 -53 5 -28 7 10 8 0 2 -35 -4 -27 -8 -113 -8 -190 0
-132 2 -144 29 -210 35 -84 86 -165 104 -165 21 0 82 -51 82 -67 0 -13 2 -13
16 -2 15 12 16 9 13 -29 -3 -25 0 -43 7 -46 16 -6 23 -53 11 -65 -7 -7 -5 -12
6 -17 10 -4 17 -17 17 -34 0 -16 5 -30 11 -32 14 -5 22 -125 9 -133 -5 -3 -10
-11 -10 -16 0 -6 5 -7 10 -4 6 3 10 1 10 -6 0 -7 6 -20 14 -28 12 -15 56 -138
56 -160 0 -5 -12 -12 -26 -15 -14 -4 -36 -18 -49 -32 -13 -14 -29 -23 -34 -19
-15 8 -61 -40 -61 -63 0 -10 7 -41 15 -68 8 -27 15 -69 15 -94 0 -25 5 -61 10
-80 6 -19 12 -70 15 -112 6 -103 9 -113 72 -258 88 -201 122 -270 137 -276 10
-4 12 -16 9 -42 -7 -53 38 -145 80 -165 50 -24 90 -26 82 -4 -3 6 -7 26 -9 42
-3 17 -10 48 -15 70 -6 22 -11 87 -11 145 0 58 -10 166 -21 240 -40 267 -49
357 -48 470 2 141 16 274 29 278 6 2 10 11 10 20 0 15 -2 15 -10 2 -8 -12 -10
-12 -10 5 0 11 4 34 9 51 7 23 4 50 -10 100 -10 38 -19 80 -18 94 l0 25 9 -23
c13 -31 57 -216 64 -271 5 -33 3 -48 -10 -62 -10 -11 -12 -19 -6 -19 6 0 14 5
17 10 3 6 12 10 18 10 8 0 8 -3 -2 -9 -9 -6 -10 -11 -2 -15 6 -4 11 -29 11
-56 0 -42 -3 -49 -22 -52 -12 -2 -23 -9 -26 -17 -3 -9 2 -11 17 -6 12 3 21 2
21 -3 0 -6 -5 -12 -10 -14 -7 -2 -7 -14 -1 -35 5 -18 8 -46 6 -63 -3 -19 0
-30 8 -30 7 0 4 -5 -5 -11 -21 -11 -23 -40 -6 -57 8 -8 8 -15 1 -24 -6 -8 -8
-30 -3 -58 4 -25 8 -41 9 -36 0 6 7 1 15 -9 12 -16 12 -22 -1 -42 -9 -13 -13
-26 -10 -30 4 -3 1 -15 -4 -26 -8 -14 -8 -21 0 -27 7 -4 13 -47 16 -111 2 -57
4 -107 4 -111 1 -4 7 -13 14 -20 10 -9 12 -29 7 -71 -3 -31 -2 -61 3 -66 5 -5
6 -15 1 -23 -5 -7 -7 -20 -6 -30 2 -9 -2 -19 -8 -23 -5 -3 -10 -10 -10 -16 0
-14 27 -11 34 4 3 6 3 -4 -1 -23 -12 -67 6 -174 47 -275 4 -11 14 -42 20 -70
15 -59 76 -247 94 -290 19 -43 41 -94 60 -140 9 -22 21 -47 26 -55 14 -20 32
-61 39 -85 16 -52 4 -558 -15 -695 -9 -64 -15 -115 -15 -145 0 -22 -3 -26 -10
-15 -5 8 -7 44 -4 80 9 115 16 184 21 223 6 42 -2 46 -34 17 -12 -11 -25 -20
-29 -19 -5 1 -15 -11 -23 -27 -8 -16 -18 -30 -22 -32 -37 -17 -94 -66 -99 -84
-4 -17 -11 -22 -27 -20 -25 4 -32 -25 -7 -30 12 -2 9 -11 -15 -36 -17 -19 -28
-38 -25 -43 4 -5 1 -9 -5 -9 -7 0 -8 -6 -1 -18 11 -20 10 -92 -1 -92 -3 0 -4
-9 -1 -20 6 -23 -22 -89 -45 -108 -15 -11 -15 -12 3 -10 11 2 26 7 33 11 8 6
12 -1 12 -23 0 -18 -6 -33 -15 -36 -20 -8 -19 -44 1 -59 12 -8 15 -20 11 -36
-3 -13 -5 -28 -4 -32 1 -5 -6 -13 -16 -18 -9 -6 -17 -15 -17 -21 0 -7 -10 -22
-22 -36 l-23 -24 28 7 c35 9 36 -11 1 -27 -20 -9 -27 -9 -33 1 -6 9 -8 5 -8
-12 l-1 -26 38 19 38 19 -6 -21 c-3 -14 -1 -19 6 -14 7 4 12 1 12 -8 0 -9 -9
-16 -20 -16 -26 0 -26 -17 0 -25 25 -8 25 -21 0 -37 -21 -14 -27 -38 -9 -38 6
0 8 -7 5 -16 -4 -12 -2 -15 9 -10 8 3 15 1 15 -4 0 -6 -6 -10 -12 -10 -9 0 -8
-3 2 -10 11 -7 12 -12 3 -21 -9 -9 -8 -17 3 -35 22 -32 10 -60 -29 -69 -25 -6
-28 -9 -12 -12 43 -9 49 -13 37 -25 -7 -7 -12 -22 -12 -35 0 -13 -5 -23 -11
-23 -5 0 -8 4 -5 9 7 11 -22 36 -31 27 -4 -4 -2 -10 4 -14 19 -12 2 -62 -28
-85 -16 -11 -29 -24 -29 -29 0 -14 28 -9 34 7 3 8 14 15 24 15 19 0 49 30 142
139 25 30 60 70 78 91 17 21 32 42 32 47 0 5 14 22 30 38 26 24 30 26 30 10 0
-10 -3 -15 -7 -12 -4 4 -13 -5 -20 -20 -7 -16 -22 -41 -33 -58 -11 -16 -23
-37 -26 -45 -4 -8 -23 -31 -43 -50 -20 -19 -35 -38 -34 -42 2 -4 -13 -20 -32
-35 -19 -15 -35 -34 -35 -40 0 -7 -4 -13 -10 -13 -5 0 -10 -7 -10 -15 0 -8 -3
-14 -8 -13 -4 2 -27 -16 -52 -40 -24 -23 -50 -42 -58 -42 -11 0 -12 -3 -2 -14
9 -12 5 -16 -24 -22 -26 -4 -36 -11 -36 -25 0 -11 -4 -19 -10 -19 -5 0 -25
-14 -44 -31 l-35 -31 -61 43 c-42 29 -57 46 -50 53 19 19 10 28 -25 24 -20 -1
-39 2 -43 9 -12 19 -91 14 -113 -8 -21 -21 -39 -25 -39 -9 0 6 5 10 12 10 6 0
8 3 5 7 -9 9 -57 11 -51 2 2 -4 -6 -18 -17 -33 -15 -19 -30 -26 -55 -26 -19 0
-34 -4 -34 -10 0 -19 -2 -25 -12 -37 -6 -7 -15 -10 -21 -6 -5 3 -7 2 -4 -4 8
-13 -29 -53 -50 -53 -9 0 -13 -3 -9 -7 12 -13 -54 -71 -75 -66 -13 4 -25 -2
-35 -15 -19 -27 -71 -53 -92 -45 -9 3 -27 15 -39 26 -12 10 -26 16 -32 12 -14
-8 -14 -55 -1 -55 6 0 10 -9 10 -19 0 -27 12 -32 50 -21 19 5 36 7 39 4 3 -2
-12 -21 -32 -41 -34 -35 -37 -36 -50 -19 -12 16 -16 17 -35 5 -21 -13 -37 -49
-21 -49 5 0 9 5 9 10 0 6 6 5 14 -2 21 -19 8 -31 -28 -25 -28 5 -29 5 -8 -5
28 -14 28 -23 0 -42 -26 -18 -36 -13 -18 9 10 12 10 18 1 29 -9 11 -9 19 0 35
11 17 10 23 -6 41 -18 20 -18 21 15 61 l33 41 -29 24 c-16 13 -35 23 -43 24
-23 0 -40 -33 -34 -65 5 -28 4 -29 -11 -14 -9 9 -19 29 -21 45 -2 16 -4 31 -4
34 -1 3 -6 -2 -11 -10 -13 -19 -13 -77 0 -85 5 -3 14 -21 19 -41 10 -38 -5
-84 -26 -77 -8 3 -9 -7 -2 -34 13 -56 11 -95 -3 -90 -7 2 -13 14 -12 26 1 23
-12 29 -19 9 -3 -9 -11 -4 -25 12 l-20 25 -24 -21 c-18 -17 -33 -21 -73 -18
-27 1 -51 8 -53 13 -2 6 -12 11 -22 11 -11 0 -24 8 -29 17 -9 16 -12 16 -21 3
-5 -8 -10 -10 -10 -5 1 6 7 19 15 29 22 30 18 38 -17 34 -19 -2 -33 2 -35 10
-3 6 1 12 9 12 7 0 0 7 -16 15 -15 8 -30 15 -32 15 -2 0 -4 -56 -4 -125 0
-112 2 -124 17 -118 12 5 15 2 10 -10 -4 -11 -1 -17 8 -17 22 0 27 17 10 34
-14 14 -12 15 20 14 39 -1 56 -15 31 -24 -9 -3 -16 -12 -16 -20 0 -12 4 -12
20 -2 11 7 20 21 20 30 0 10 7 18 15 18 8 0 15 -5 15 -10 0 -6 11 -15 25 -20
15 -6 23 -15 19 -23 -2 -7 -1 -24 4 -37 l9 -25 7 23 c8 25 21 29 29 9 3 -8 -7
-21 -24 -31 -28 -17 -29 -17 -40 8 -8 16 -17 23 -28 19 -27 -10 -60 -44 -55
-58 3 -7 -5 -15 -17 -18 -15 -4 -23 -1 -26 12 -2 9 -13 22 -24 29 -16 10 -19
9 -19 -7 0 -11 -3 -26 -6 -34 -3 -10 2 -17 13 -20 16 -4 16 -5 1 -6 -17 -1
-18 -89 -18 -1691 l0 -1690 2697 0 c1973 0 2700 3 2710 11 9 9 13 9 13 0 0 -6
11 -11 25 -11 14 0 25 4 25 9 0 17 45 21 56 6 10 -14 12 -14 18 1 3 9 4 20 0
25 -3 5 0 9 5 9 6 0 11 -7 11 -15 0 -20 19 -19 42 2 11 9 18 11 18 5 0 -20 17
-13 23 9 3 12 10 18 16 14 6 -3 9 -10 6 -14 -2 -5 17 -11 43 -15 27 -3 57 -13
68 -21 16 -12 72 -14 321 -15 l303 0 0 549 c0 430 -3 551 -13 555 -9 5 -9 7 1
12 7 4 12 28 12 66 0 59 -1 60 -25 56 -17 -4 -25 -1 -25 8 0 8 10 14 24 14
l24 0 1 141 c1 100 -3 147 -11 157 -10 13 -10 14 0 8 8 -5 12 -1 12 13 0 14
-9 21 -31 26 -21 5 -29 11 -25 22 3 8 6 17 6 21 0 3 11 -5 25 -18 l25 -23 0
62 c0 67 0 68 -52 46 -11 -4 -18 -3 -18 5 0 6 13 17 29 23 35 13 51 55 27 69
-21 12 -21 42 -1 34 23 -9 20 181 -3 208 -16 18 -16 19 1 13 12 -5 17 -1 17
13 0 22 -29 27 -61 10 -15 -8 -19 -7 -19 4 0 8 6 17 13 19 10 4 10 6 0 6 -18
1 -16 31 2 31 8 0 15 -7 15 -15 0 -16 12 -20 23 -8 4 3 0 11 -7 17 -18 14 -31
56 -17 56 6 0 11 -6 11 -14 0 -12 20 -26 36 -26 2 0 4 18 4 39 0 36 -2 40 -24
38 -34 -3 -37 17 -3 21 37 4 34 16 -8 36 -19 9 -35 22 -35 28 0 7 -5 6 -15 -2
-8 -7 -15 -18 -15 -24 0 -6 -11 -13 -25 -14 -14 -1 -25 3 -25 9 0 24 22 49 45
49 13 0 25 5 27 11 5 15 36 0 41 -19 3 -12 5 -10 6 5 1 16 6 21 16 17 13 -5
15 7 15 71 l0 78 -21 -19 c-20 -18 -20 -18 -17 21 2 30 7 39 19 37 13 -2 17 7
17 39 1 37 0 39 -13 23 -8 -11 -15 -25 -15 -31 0 -7 -4 -13 -10 -13 -13 0 -13
6 1 31 9 18 8 20 -13 17 -15 -2 -28 -15 -37 -35 -8 -18 -18 -33 -23 -33 -5 0
-4 9 2 20 12 22 1 27 -18 8 -6 -6 -15 -8 -19 -4 -4 4 3 16 17 26 21 16 22 20
9 25 -9 3 -22 5 -29 3 -8 -2 -16 5 -18 15 -3 17 19 23 70 19 9 -1 22 5 28 13
7 8 20 15 30 15 13 0 16 6 12 25 -4 24 -5 24 -17 8 -15 -20 -20 -18 -29 14 -5
16 -2 23 14 28 26 8 20 30 -8 29 -18 0 -20 4 -15 29 6 27 4 30 -15 25 -12 -4
-24 -2 -27 2 -6 10 -66 7 -84 -4 -6 -4 -11 -2 -11 3 0 18 -18 13 -41 -11 l-21
-23 7 25 c4 14 13 28 19 32 7 5 5 8 -6 8 -9 0 -20 5 -24 11 -5 9 17 10 80 7
68 -3 86 -2 86 9 0 7 -10 17 -22 22 -27 10 -132 4 -136 -8 -5 -15 -52 1 -52
18 0 13 2 13 9 2 7 -11 11 -9 20 8 9 17 9 21 -3 21 -15 0 -29 27 -20 41 3 5
10 9 15 9 6 0 7 -4 4 -10 -10 -16 35 -12 51 5 20 19 46 8 39 -16 -8 -23 4 -25
19 -3 11 14 15 12 39 -19 31 -42 103 -82 113 -65 4 7 3 13 -3 15 -6 2 -23 14
-38 27 -30 26 -19 44 14 26 29 -15 36 5 10 31 -15 15 -24 18 -32 10 -16 -16
-34 -14 -89 14 -58 29 -58 29 -58 11 0 -14 -29 -30 -38 -21 -3 3 0 11 6 17 19
19 14 30 -10 23 -23 -7 -23 -7 -3 8 11 8 24 15 29 15 9 0 26 22 26 32 0 3 -8
7 -17 8 -10 1 -27 3 -38 4 -14 2 -21 -4 -23 -20 -3 -23 -36 -42 -70 -42 -11 0
-5 8 16 20 28 17 31 23 22 41 -8 14 -17 18 -31 14 -22 -7 -26 13 -4 21 24 10
18 43 -10 50 -13 3 -24 9 -23 13 2 20 -4 31 -17 31 -8 0 -15 5 -15 11 0 7 -10
9 -27 4 l-28 -7 28 26 27 25 -37 -6 c-31 -5 -35 -4 -30 10 3 9 2 19 -3 22 -6
4 -7 13 -1 23 11 22 4 42 -15 42 -8 0 -14 9 -14 20 0 13 7 20 20 20 11 0 20 5
20 10 0 6 -9 10 -20 10 -28 0 -42 32 -30 66 10 26 11 26 30 9 14 -12 24 -15
30 -9 7 7 4 16 -9 28 -11 10 -17 24 -14 32 5 13 -25 20 -64 15 -19 -3 -16 16
3 23 9 3 28 6 44 6 24 0 28 4 25 26 -1 17 2 24 11 20 19 -7 11 40 -11 64 -10
11 -28 20 -39 20 -12 0 -35 8 -51 19 -17 10 -55 24 -85 30 -132 30 -328 86
-356 103 -17 10 -41 18 -53 18 -11 0 -21 6 -21 13 0 9 -3 8 -9 -2 -10 -16 -64
-7 -82 15 -6 8 -18 14 -25 14 -8 0 -40 13 -72 30 -31 16 -79 37 -106 47 -27 9
-44 19 -38 21 7 2 12 14 12 28 0 17 -4 22 -16 17 -12 -4 -15 0 -13 18 2 15 -7
35 -24 53 -32 34 -33 39 -10 57 10 8 14 9 10 2 -4 -6 -3 -14 2 -17 15 -9 24
12 17 40 -5 19 -11 24 -26 19 -14 -5 -20 -2 -20 10 0 9 -5 13 -10 10 -6 -4
-10 5 -10 19 0 14 4 26 9 26 5 0 25 7 46 16 27 11 35 18 27 26 -6 6 -18 7 -29
3 -26 -12 -53 -14 -53 -4 0 5 8 9 18 10 9 0 2 5 -16 10 l-34 10 24 22 c13 13
34 22 50 21 l27 -1 -24 25 c-13 13 -29 21 -35 17 -5 -3 -10 2 -10 14 0 33 11
51 31 51 23 0 25 18 4 26 -27 11 -16 32 20 36 19 2 35 0 35 -4 0 -4 4 -8 9 -8
18 0 -11 64 -45 100 -31 33 -32 37 -18 51 14 15 14 18 -1 32 -15 15 -12 23 38
99 83 129 84 131 106 198 26 78 27 140 3 180 -10 16 -21 27 -25 24 -3 -3 -10
4 -17 15 -6 12 -15 21 -21 21 -6 0 -8 -4 -5 -9 3 -5 -1 -12 -10 -15 -8 -3 -12
-2 -9 3 8 14 -27 81 -42 81 -7 0 -13 7 -13 15 0 18 -1 18 -32 2 -14 -7 -23
-18 -20 -25 2 -6 -3 -12 -12 -12 -9 0 -16 -4 -16 -10 0 -19 42 -10 47 10 3 11
8 20 12 20 17 0 39 -27 43 -52 6 -32 -11 -38 -19 -8 -6 22 -23 27 -23 7 0 -17
-55 -10 -71 9 -6 8 -20 14 -31 14 -16 0 -18 3 -9 14 7 8 21 12 31 9 15 -4 20
0 20 16 0 14 6 21 20 21 11 0 20 5 20 10 0 6 -6 10 -14 10 -8 0 -22 3 -32 7
-12 4 -15 3 -10 -5 14 -23 -3 -48 -31 -46 -19 0 -31 10 -45 35 -12 23 -28 36
-48 40 -17 4 -30 3 -30 -2 0 -5 11 -9 25 -9 39 0 53 -39 30 -87 -16 -33 -19
-35 -25 -17 -8 21 -69 84 -82 84 -5 0 -1 -12 9 -27 l18 -27 -25 8 c-37 11 -83
13 -96 4 -14 -10 -38 17 -29 33 6 8 2 8 -13 0 -11 -6 -30 -11 -41 -11 -12 0
-21 -6 -21 -14 0 -8 -4 -17 -9 -20 -4 -3 -6 5 -4 18 4 21 2 23 -21 19 -15 -3
-26 -1 -26 6 0 6 9 11 20 11 11 0 20 5 20 10 0 14 -33 13 -48 -2 -8 -8 -17 -5
-35 12 -14 13 -23 30 -20 37 3 7 1 13 -5 13 -14 0 -22 -38 -9 -43 6 -2 7 -9 2
-17 -6 -10 -11 -9 -21 5 -10 14 -11 22 -3 32 8 9 8 13 1 13 -7 0 -15 -14 -20
-31 -6 -25 -14 -33 -35 -35 -16 -1 -26 2 -24 9 1 8 -12 12 -35 11 -26 -1 -38
3 -38 12 0 9 -11 14 -30 14 -16 0 -30 5 -30 11 0 24 22 49 45 49 13 0 27 5 31
11 5 8 -1 10 -18 7 -20 -4 -24 -1 -21 12 3 11 11 16 22 13 11 -3 21 2 24 11 8
19 43 21 51 4 5 -10 7 -10 12 0 4 8 18 0 42 -27 38 -40 73 -53 187 -66 54 -6
211 -14 312 -14 56 -1 62 -3 66 -23 l4 -23 2 22 c1 18 8 22 44 25 39 3 44 6
69 53 44 80 82 209 69 233 -6 11 -18 42 -27 68 -16 50 -43 84 -65 84 -7 0 -9
3 -6 7 4 3 -11 19 -33 35 -44 33 -144 65 -137 45 2 -7 14 -13 26 -15 15 -3 21
-8 17 -19 -3 -8 -6 -19 -6 -24 0 -17 -18 -9 -23 11 -3 12 -14 20 -26 20 -28 0
-27 -20 2 -21 12 0 16 -3 9 -6 -6 -2 -10 -8 -7 -12 2 -4 -11 -8 -30 -9 -24 -1
-35 3 -35 12 0 8 5 16 11 18 17 6 -2 38 -23 38 -14 0 -18 -5 -14 -15 5 -15 -5
-20 -17 -8 -4 3 1 15 10 26 17 20 17 20 -7 14 -14 -4 -28 -7 -32 -7 -5 0 -8
-7 -8 -15 0 -8 -6 -15 -14 -15 -9 0 -13 10 -12 25 1 23 5 25 51 26 28 0 59 4
69 8 36 14 59 145 36 205 -5 15 -24 32 -47 41 -59 25 -95 65 -58 65 9 0 18 -7
21 -15 6 -14 34 -22 34 -9 0 4 -12 17 -26 29 -15 13 -22 25 -16 29 15 9 40 -3
47 -22 2 -10 14 -23 25 -30 23 -14 18 -24 78 138 60 162 72 201 62 195 -6 -3
-10 -12 -10 -20 0 -7 -6 -15 -13 -18 -6 -2 -20 -27 -30 -53 -16 -46 -56 -104
-71 -104 -6 0 37 84 84 165 20 35 59 153 106 325 8 30 22 91 30 135 9 44 19
85 24 90 8 11 10 18 34 135 38 180 52 230 64 235 17 6 16 -1 -23 -180 -20 -88
-38 -175 -42 -192 l-6 -33 46 0 c87 0 138 36 177 123 12 29 29 66 36 82 22 51
62 166 83 240 27 93 54 171 80 228 31 68 42 186 30 315 -20 227 -26 244 -94
276 -46 22 -74 20 -129 -9 -25 -13 -46 -21 -46 -17 0 4 15 28 34 55 47 67 79
144 80 198 1 25 6 52 13 60 18 23 26 85 13 106 -9 14 -10 14 -6 1 7 -23 -15
-90 -28 -83 -6 3 -19 8 -28 11 -22 8 -23 20 -3 28 23 8 18 26 -8 26 -13 0 -31
6 -41 13 -17 13 -17 14 8 30 14 9 32 17 41 17 21 0 19 16 -2 25 -16 6 -15 8 7
18 23 11 25 18 26 75 1 35 6 67 12 71 5 3 9 27 9 54 -2 35 2 47 13 48 10 0 11
2 3 6 -18 7 -16 23 2 23 8 0 15 5 15 11 0 5 -4 7 -10 4 -5 -3 -10 1 -10 9 0 9
7 16 16 16 8 0 12 5 9 10 -3 6 -1 10 4 10 6 0 11 7 11 15 0 8 15 30 34 48 19
19 46 53 60 75 14 22 30 43 36 47 5 3 10 13 10 21 0 17 15 35 45 52 17 10 18
11 3 12 -18 0 -24 26 -10 45 4 6 36 10 72 10 58 0 66 2 75 23 5 12 13 22 17
22 5 0 8 5 8 11 0 15 -63 7 -76 -10 -13 -17 -44 -8 -44 14 0 8 9 23 20 32 11
10 20 22 20 28 0 7 11 22 25 35 14 13 25 27 25 32 0 5 11 21 25 36 14 15 25
33 25 41 0 11 -4 10 -14 -4 -19 -27 -48 -13 -40 20 9 35 -7 31 -31 -8 -25 -39
-61 -51 -50 -16 4 12 8 34 10 48 1 14 5 35 9 46 26 68 33 125 16 125 -6 0 -10
7 -10 15 0 8 5 15 10 15 6 0 10 4 10 10 0 5 -7 7 -15 4 -8 -4 -15 -1 -15 5 0
6 8 11 18 11 13 0 14 2 3 9 -8 6 -11 16 -6 31 5 15 4 20 -4 16 -6 -4 -11 -14
-11 -22 0 -18 -27 -47 -33 -37 -11 19 -16 109 -7 123 7 11 10 11 10 2 0 -7 4
-11 10 -7 5 3 7 12 3 20 -3 9 0 21 6 29 7 9 9 29 5 55 -4 28 -3 41 5 41 6 0
11 -6 11 -12 0 -9 3 -9 9 1 5 8 7 20 4 28 -8 21 16 43 48 43 18 0 32 7 39 20
8 16 8 20 -2 18 -7 -2 -13 6 -13 17 0 15 7 20 30 21 54 1 124 46 151 97 15 28
15 29 -5 22 -27 -8 -28 11 -2 39 33 37 58 176 40 223 -5 13 -16 32 -25 41 -16
15 -16 14 -10 -18 4 -19 10 -58 13 -87 4 -48 3 -53 -32 -91 -20 -23 -42 -39
-50 -36 -7 3 -16 1 -20 -5 -3 -6 0 -11 7 -11 9 -1 9 -3 -2 -9 -23 -13 -142 5
-155 23 -8 10 -20 13 -35 9 l-23 -6 21 21 c27 27 28 41 5 49 -10 4 -22 12 -26
20 -4 7 -16 13 -26 13 -26 0 -44 25 -36 50 7 22 -4 27 -22 9 -14 -14 -44 -5
-41 11 2 7 -21 20 -50 31 -35 14 -61 32 -79 57 -16 20 -30 39 -33 42 -4 3 -16
21 -27 40 -12 19 -31 42 -42 50 -12 8 -21 21 -21 30 0 8 -7 23 -15 33 -7 11
-11 26 -8 35 5 12 1 14 -15 10 -15 -4 -22 -2 -22 9 0 8 -18 22 -40 31 -22 9
-40 22 -40 28 0 19 -42 41 -110 58 -46 12 -71 24 -87 44 -18 21 -23 23 -23 10
0 -10 -4 -18 -9 -18 -4 0 -6 10 -4 23 4 19 -8 28 -90 70 -51 26 -99 47 -105
47 -7 0 -12 7 -12 15 0 8 -9 15 -20 15 -11 0 -29 9 -41 21 -16 16 -28 19 -53
15 -28 -5 -36 -2 -56 24 -14 19 -32 30 -47 30 -13 0 -22 4 -19 9 6 9 -11 17
-86 42 -21 7 -38 19 -38 26 0 16 -31 32 -49 25 -8 -3 -11 0 -7 6 3 6 -2 17
-12 24 -10 7 -21 21 -25 31 -4 10 -11 16 -16 12 -6 -3 -15 4 -21 15 -6 11 -15
18 -20 15 -4 -3 -16 -2 -26 2 -16 6 -16 7 2 14 15 6 8 12 -41 35 -71 33 -179
54 -335 66 -8 0 -46 -7 -83 -16 -76 -18 -123 -21 -131 -7 -4 5 -29 15 -56 22
-28 7 -50 19 -50 26 0 7 -8 13 -19 13 -10 0 -24 7 -31 15 -11 13 -15 13 -21 3
-7 -10 -9 -10 -9 0 0 6 -9 12 -20 12 -12 0 -20 7 -20 16 0 14 -7 16 -40 11
-29 -4 -40 -2 -40 8 0 7 -8 12 -17 10 -78 -15 -84 -15 -93 8 -5 12 -9 16 -9 9z
m-1045 -467 c-23 -17 -36 -19 -36 -6 0 5 8 12 18 14 32 9 37 6 18 -8z m-386
-385 c0 -11 0 -23 1 -27 0 -5 -10 -15 -22 -23 -20 -13 -21 -13 -15 7 l7 21
-38 -19 c-34 -17 -45 -17 -101 -7 -34 6 -62 15 -62 19 0 18 33 29 115 37 50 5
96 10 103 11 6 0 12 -8 12 -19z m3435 -60 c3 -5 1 -10 -4 -10 -6 0 -11 5 -11
10 0 6 2 10 4 10 3 0 8 -4 11 -10z m84 -61 c13 -11 21 -22 18 -26 -8 -7 -57
24 -57 37 0 15 12 12 39 -11z m-3844 -54 c-32 -14 -41 -13 -30 4 3 6 18 11 33
10 l27 -1 -30 -13z m-228 -297 c-15 -27 -32 -44 -45 -46 -12 -2 -22 0 -22 4 0
12 32 44 44 44 6 0 17 9 24 20 23 38 23 20 -1 -22z m85 -90 c-34 -34 -63 -60
-66 -58 -2 3 4 22 14 42 10 20 15 39 12 42 -3 4 2 6 11 6 9 0 31 9 49 20 53
32 46 13 -20 -52z m-80 -24 c-3 -17 -8 -22 -15 -15 -11 11 -3 41 11 41 5 0 7
-12 4 -26z m-72 -38 c0 -3 -4 -8 -10 -11 -5 -3 -10 -1 -10 4 0 6 5 11 10 11 6
0 10 -2 10 -4z m-80 -156 c0 -5 -5 -10 -11 -10 -5 0 -7 5 -4 10 3 6 8 10 11
10 2 0 4 -4 4 -10z m102 -32 c-6 -6 -15 -8 -19 -4 -4 4 -1 11 7 16 19 12 27 3
12 -12z m-52 -13 c-7 -8 -19 -15 -27 -15 -13 0 -13 3 -3 15 7 8 19 15 27 15
13 0 13 -3 3 -15z m53 -35 c3 -12 -6 -35 -24 -60 -16 -23 -29 -46 -28 -53 5
-42 -10 -48 -41 -17 -24 24 -25 30 -5 30 8 0 15 7 15 15 0 9 12 27 26 40 15
14 22 25 15 25 -19 0 -12 16 12 28 12 6 23 11 23 11 1 1 4 -8 7 -19z m-93 -60
c0 -21 -15 -27 -25 -10 -7 12 2 30 16 30 5 0 9 -9 9 -20z m150 -677 c0 -20 -3
-24 -11 -16 -7 7 -9 19 -6 27 10 24 17 19 17 -11z m4410 -93 c0 -22 -1 -23
-24 -14 -13 5 -14 9 -5 20 16 20 29 17 29 -6z m-4371 -405 c0 -5 -4 -3 -9 5
-5 8 -9 22 -9 30 0 16 17 -16 18 -35z m3866 -52 c-2 -10 -4 -19 -4 -20 -4 -11
1 -18 11 -18 12 0 30 -73 22 -87 -7 -11 -44 4 -44 18 0 8 5 14 10 14 6 0 10 7
10 16 0 8 -4 12 -10 9 -5 -3 -10 3 -10 14 0 13 -7 21 -16 21 -13 0 -11 5 7 25
29 30 28 29 24 8z m-3328 -56 c-4 -13 -47 -17 -47 -4 0 5 -11 7 -25 5 -13 -3
-22 -2 -20 3 8 12 97 9 92 -4z m-143 -9 c-11 -5 -26 -26 -31 -46 l-10 -37 -2
36 c-1 40 13 59 44 58 20 0 20 0 -1 -11z m3446 2 c0 -5 -4 -10 -10 -10 -5 0
-10 5 -10 10 0 6 5 10 10 10 6 0 10 -4 10 -10z m-2975 -20 c-3 -5 -13 -10 -21
-10 -8 0 -12 5 -9 10 3 6 13 10 21 10 8 0 12 -4 9 -10z m-52 -7 c-7 -2 -21 -2
-30 0 -10 3 -4 5 12 5 17 0 24 -2 18 -5z m-347 -28 c-11 -8 -23 -15 -28 -15
-4 0 -8 -12 -8 -26 0 -18 -5 -25 -16 -22 -11 2 -17 15 -19 41 l-2 37 46 0 c43
-1 45 -2 27 -15z m204 -13 c0 -7 -35 -37 -67 -56 -24 -14 -13 5 19 35 33 29
48 36 48 21z m2790 -12 c0 -5 -5 -10 -11 -10 -5 0 -7 5 -4 10 3 6 8 10 11 10
2 0 4 -4 4 -10z m114 -10 c7 -7 0 -10 -21 -10 -38 0 -63 9 -63 22 0 13 69 3
84 -12z m-3197 -26 c-4 -23 -2 -37 6 -40 18 -7 21 -114 4 -114 -18 0 -26 -107
-21 -262 2 -60 0 -108 -5 -108 -17 0 -23 142 -15 309 5 91 8 178 6 194 -1 15
2 27 8 27 5 0 10 7 10 15 0 8 3 15 6 15 4 0 4 -16 1 -36z m3574 7 c-16 -29
-36 -41 -60 -34 -29 7 -23 35 9 43 50 12 61 10 51 -9z m-236 -11 c3 -5 -1 -10
-9 -10 -8 0 -18 5 -21 10 -3 6 1 10 9 10 8 0 18 -4 21 -10z m190 -72 c14 -6
25 -14 25 -18 0 -4 16 -15 35 -26 33 -17 48 -44 25 -44 -20 0 -74 33 -110 66
-37 36 -26 46 25 22z m145 -31 c0 -3 -7 -7 -15 -11 -11 -4 -15 2 -15 20 0 23
2 24 15 10 8 -8 15 -17 15 -19z m-3450 13 c0 -5 -5 -10 -11 -10 -5 0 -7 5 -4
10 3 6 8 10 11 10 2 0 4 -4 4 -10z m-69 -85 c-6 -24 -8 -51 -5 -59 3 -9 1 -16
-5 -16 -18 0 -17 85 1 129 10 22 12 23 16 7 2 -10 -1 -38 -7 -61z m-85 11 c1
-43 -13 -35 -22 13 -6 26 -4 33 7 29 7 -2 14 -20 15 -42z m3400 -9 c1 -23 5
-72 8 -110 4 -37 5 -67 2 -67 -3 0 -12 13 -21 30 -11 22 -14 44 -9 85 5 37 3
59 -5 69 -10 12 -10 18 1 30 18 19 22 12 24 -37z m-3229 -36 c1 -1 -4 -22 -12
-48 -8 -27 -15 -59 -15 -72 0 -16 -4 -21 -9 -15 -11 11 -14 33 -12 95 1 41 3
45 24 43 12 -1 23 -3 24 -3z m1711 -21 c36 -22 36 -48 0 -29 -12 6 -50 9 -89
7 -55 -3 -73 -8 -94 -28 -18 -17 -25 -19 -25 -8 0 15 32 48 65 66 33 18 106
14 143 -8z m1677 -102 c0 -57 -5 -94 -16 -118 -9 -19 -29 -75 -44 -125 -24
-80 -91 -222 -130 -278 -36 -51 -107 -115 -156 -139 -117 -59 -314 -87 -528
-76 -189 10 -299 51 -399 148 -56 54 -50 61 8 9 57 -50 146 -94 235 -116 110
-26 393 -24 506 4 156 39 259 100 311 181 64 101 86 147 76 159 -6 7 -8 31 -5
53 3 22 1 40 -4 40 -5 0 -9 12 -9 26 0 14 -5 45 -11 69 -9 37 -9 47 4 60 19
19 22 14 36 -55 6 -30 15 -71 19 -90 l8 -35 12 35 c30 92 44 174 46 267 1 102
1 102 21 83 16 -16 19 -34 20 -102z m128 102 c-3 -11 -7 -20 -9 -20 -2 0 -4 9
-4 20 0 11 4 20 9 20 5 0 7 -9 4 -20z m-3671 -25 c3 -14 1 -25 -3 -25 -5 0 -9
11 -9 25 0 14 2 25 4 25 2 0 6 -11 8 -25z m3578 16 c0 -6 -4 -13 -10 -16 -5
-3 -10 1 -10 9 0 9 5 16 10 16 6 0 10 -4 10 -9z m52 -34 c-7 -8 -9 -18 -5 -23
4 -5 2 -4 -6 2 -8 8 -10 20 -6 34 5 15 10 19 18 11 7 -7 7 -14 -1 -24z m-3552
-31 c0 -18 5 -58 11 -90 12 -69 5 -87 -11 -25 -6 24 -14 51 -18 59 -11 20 -3
102 9 94 5 -3 9 -20 9 -38z m1570 -15 c0 -12 -20 -25 -27 -18 -7 7 6 27 18 27
5 0 9 -4 9 -9z m1821 -94 c-10 -9 -11 -8 -5 6 3 10 9 15 12 12 3 -3 0 -11 -7
-18z m-1441 -67 c0 -5 -2 -10 -4 -10 -3 0 -8 5 -11 10 -3 6 -1 10 4 10 6 0 11
-4 11 -10z m-1879 -130 c5 0 9 -8 9 -18 0 -31 98 -179 143 -216 97 -79 303
-136 493 -136 74 0 113 -4 109 -10 -8 -13 -137 -12 -235 1 -41 5 -90 10 -108
9 -18 0 -47 6 -65 13 -18 8 -54 22 -81 32 -67 24 -157 86 -195 134 -38 48 -80
150 -85 206 -2 22 -1 28 1 13 2 -16 8 -28 14 -28z m3377 -280 c0 -69 -3 -150
-8 -180 -26 -172 -40 -232 -53 -227 -17 5 -9 144 10 181 9 16 10 25 3 21 -14
-9 -2 67 13 76 6 4 6 13 -1 24 -5 11 -6 30 -2 47 5 16 5 30 -1 34 -6 4 -6 11
2 20 8 9 8 18 2 27 -22 27 -22 87 0 145 l22 57 7 -50 c3 -27 6 -106 6 -175z
m-3365 80 c4 -17 3 -19 -9 -9 -8 6 -14 18 -14 26 0 20 16 8 23 -17z m1227 12
c0 -4 -13 -23 -30 -42 -25 -29 -31 -33 -40 -20 -17 26 -11 39 23 54 38 17 47
19 47 8z m-122 -61 c-83 -68 -204 -119 -298 -126 l-55 -4 65 15 c132 31 216
72 295 142 6 6 11 6 13 1 2 -5 -7 -18 -20 -28z m957 9 c3 -5 1 -10 -4 -10 -6
0 -11 5 -11 10 0 6 2 10 4 10 3 0 8 -4 11 -10z m-518 -152 c-3 -8 -6 -5 -6 6
-1 11 2 17 5 13 3 -3 4 -12 1 -19z m-1547 -4 c0 -2 -7 -4 -15 -4 -8 0 -15 4
-15 10 0 5 7 7 15 4 8 -4 15 -8 15 -10z m-43 -126 c-3 -8 -6 -5 -6 6 -1 11 2
17 5 13 3 -3 4 -12 1 -19z m1423 -28 c0 -5 -4 -10 -10 -10 -5 0 -10 5 -10 10
0 6 5 10 10 10 6 0 10 -4 10 -10z m2042 -292 c-7 -7 -9 5 -7 33 3 58 7 63 12
15 3 -21 0 -43 -5 -48z m-3562 -124 c-9 -23 -13 -26 -20 -14 -4 8 -6 28 -3 43
5 25 8 27 20 15 11 -12 11 -21 3 -44z m2780 -24 c0 -5 -2 -10 -4 -10 -3 0 -8
5 -11 10 -3 6 -1 10 4 10 6 0 11 -4 11 -10z m-2620 -24 c0 -3 -4 -8 -10 -11
-5 -3 -10 -1 -10 4 0 6 5 11 10 11 6 0 10 -2 10 -4z m2921 -61 c16 -36 22 -78
27 -203 8 -173 1 -278 -11 -162 -3 36 -9 125 -12 198 -3 84 -11 146 -20 169
-17 39 -17 43 -9 43 3 0 14 -20 25 -45z m-2931 15 c0 -5 -4 -10 -10 -10 -5 0
-10 5 -10 10 0 6 5 10 10 10 6 0 10 -4 10 -10z m250 -461 c0 -44 5 -90 12
-102 6 -12 13 -46 14 -76 4 -59 10 -73 24 -51 18 29 10 -34 -9 -69 l-18 -34
-8 79 c-4 43 -10 84 -15 89 -23 31 -42 207 -25 235 17 27 25 3 25 -71z m42
-96 c-16 -47 -24 46 -11 122 1 6 5 -17 9 -50 3 -33 5 -66 2 -72z m907 -58
c-10 -10 -22 -13 -35 -8 -17 6 -17 8 6 14 40 11 45 10 29 -6z m-89 0 c0 -2
-16 -20 -35 -39 -19 -20 -35 -32 -35 -29 0 7 61 73 67 73 2 0 3 -2 3 -5z
m-783 -77 c-3 -8 -6 -5 -6 6 -1 11 2 17 5 13 3 -3 4 -12 1 -19z m1486 -26
c-20 -2 -33 -10 -36 -20 -3 -12 -5 -11 -6 5 -1 17 6 23 27 25 15 2 32 1 37 -2
6 -3 -4 -6 -22 -8z m167 -3 c0 -5 -9 -9 -20 -9 -11 0 -20 4 -20 8 0 4 9 8 20
9 11 1 20 -2 20 -8z m-975 -26 c-18 -13 -18 -13 1 -29 10 -8 14 -13 7 -9 -7 3
-21 -3 -33 -15 -22 -22 -27 -41 -9 -37 6 1 14 -4 16 -11 3 -7 1 -12 -4 -11
-15 2 -53 -13 -53 -22 0 -5 5 -9 11 -9 5 0 7 -5 4 -10 -4 -6 -10 -8 -15 -5
-11 7 -32 -30 -23 -39 3 -3 1 -6 -5 -6 -7 0 -12 -8 -12 -17 0 -9 -10 -27 -22
-40 -12 -13 -21 -36 -21 -52 0 -20 -6 -31 -18 -34 -13 -3 -16 -11 -12 -28 4
-19 3 -21 -6 -9 -9 12 -11 11 -11 -7 0 -15 -5 -21 -13 -17 -8 3 -20 -3 -28
-12 -12 -15 -12 -16 10 -9 l24 7 -22 -23 c-19 -20 -26 -43 -22 -74 0 -6 -9
-11 -20 -12 -28 -2 -32 -7 -33 -42 -1 -16 -4 -27 -8 -25 -4 3 -12 -5 -18 -16
-6 -11 -16 -20 -23 -20 -7 0 -18 -9 -25 -21 -12 -19 -11 -20 7 -14 12 4 21 2
21 -4 0 -6 -9 -11 -20 -11 -12 0 -20 -6 -18 -12 1 -7 -8 -31 -20 -53 -23 -43
-28 -43 -12 2 l10 28 -25 -30 c-17 -21 -21 -31 -12 -37 9 -6 9 -8 0 -8 -7 0
-13 -5 -13 -10 0 -6 -9 -20 -20 -32 -12 -13 -20 -36 -20 -55 0 -18 -4 -33 -10
-33 -5 0 -10 -11 -10 -24 0 -13 -7 -26 -15 -30 -8 -3 -15 -11 -15 -18 0 -7
-12 -35 -25 -63 -14 -27 -25 -60 -25 -72 0 -13 -5 -23 -11 -23 -7 0 -10 -15
-7 -40 2 -22 0 -40 -5 -40 -5 0 -7 -18 -5 -40 3 -33 0 -40 -14 -40 -10 0 -18
-4 -18 -10 0 -11 -40 -34 -47 -26 -3 2 7 17 22 32 21 21 24 29 13 36 -10 7 -8
13 11 28 21 18 17 25 -11 21 -4 0 -5 6 -2 14 4 8 10 13 14 10 4 -3 8 5 8 18 0
51 24 112 108 279 13 27 24 57 24 68 0 11 5 20 10 20 6 0 10 8 10 19 0 10 7
24 15 31 8 7 15 18 15 25 0 7 6 18 14 24 7 6 27 39 44 74 17 34 62 107 101
162 39 55 97 143 129 195 53 86 73 121 140 241 36 65 46 78 56 72 5 -3 1 -12
-9 -20z m45 17 c0 -5 -4 -10 -10 -10 -5 0 -10 5 -10 10 0 6 5 10 10 10 6 0 10
-4 10 -10z m694 -21 c-8 -14 -24 -10 -24 6 0 9 6 12 15 9 8 -4 12 -10 9 -15z
m156 -9 c0 -10 -5 -22 -10 -25 -13 -8 -24 20 -16 41 8 20 26 9 26 -16z m-80
16 c0 -3 -4 -8 -10 -11 -5 -3 -10 -1 -10 4 0 6 5 11 10 11 6 0 10 -2 10 -4z
m220 -13 c10 -12 14 -34 12 -61 -4 -48 -22 -48 -23 1 0 31 -17 84 -18 59 -1
-8 -17 -12 -51 -11 -63 3 -65 17 -2 22 26 2 52 4 57 5 6 1 17 -6 25 -15z m80
-6 c11 -5 9 -6 -4 -4 -11 1 -21 9 -23 17 -3 10 -2 11 4 4 4 -6 15 -14 23 -17z
m53 16 c-7 -2 -21 -2 -30 0 -10 3 -4 5 12 5 17 0 24 -2 18 -5z m767 -11 c0 -4
-9 -13 -20 -20 -22 -13 -23 -12 -14 12 6 16 34 23 34 8z m-590 -6 c0 -11 -19
-15 -25 -6 -3 5 1 10 9 10 9 0 16 -2 16 -4z m427 -2 c-3 -3 -12 -4 -19 -1 -8
3 -5 6 6 6 11 1 17 -2 13 -5z m-1033 -10 c17 -6 22 -24 8 -24 -5 0 -17 7 -28
15 -19 15 -8 20 20 9z m76 -2 c0 -13 -12 -22 -22 -16 -10 6 -1 24 13 24 5 0 9
-4 9 -8z m140 -12 c0 -5 15 -10 33 -10 l32 0 -25 -20 c-14 -11 -31 -19 -39
-17 -15 2 -25 57 -10 57 5 0 9 -4 9 -10z m170 6 c0 -2 -7 -6 -15 -10 -8 -3
-15 -1 -15 4 0 6 7 10 15 10 8 0 15 -2 15 -4z m536 -27 c1 -25 -1 -28 -8 -15
-5 10 -7 24 -4 32 8 21 11 17 12 -17z m142 -1 c-2 -7 3 -12 11 -10 9 2 11 -3
7 -13 -3 -9 -6 -21 -6 -26 0 -5 -5 -9 -12 -9 -6 0 -8 3 -5 6 3 4 0 16 -8 28
-19 26 -19 36 0 36 8 0 14 -6 13 -12z m-923 -8 c3 -5 -1 -10 -10 -10 -9 0 -13
5 -10 10 3 6 8 10 10 10 2 0 7 -4 10 -10z m-1624 -47 c-9 -16 -10 -16 -11 -1
0 9 3 25 7 35 7 16 8 17 11 1 2 -10 -1 -25 -7 -35z m1479 37 c0 -5 -4 -10 -10
-10 -5 0 -10 5 -10 10 0 6 5 10 10 10 6 0 10 -4 10 -10z m460 -15 c0 -8 -7
-15 -15 -15 -8 0 -15 -9 -15 -20 0 -22 -8 -25 -30 -10 -13 9 -13 12 2 20 9 6
15 17 12 25 -5 11 1 15 20 15 16 0 26 -6 26 -15z m-298 -30 c3 -14 1 -25 -3
-25 -5 0 -9 7 -9 15 0 10 -10 15 -27 15 l-28 0 25 14 c31 16 36 13 42 -19z
m198 18 c0 -7 5 -13 10 -13 6 0 10 -5 10 -11 0 -6 -7 -9 -14 -6 -11 4 -13 1
-10 -11 4 -10 -2 -7 -15 8 -26 32 -26 46 -1 46 11 0 20 -6 20 -13z m430 7 c0
-5 -2 -10 -4 -10 -3 0 -8 5 -11 10 -3 6 -1 10 4 10 6 0 11 -4 11 -10z m-1010
-10 c0 -5 -7 -7 -15 -4 -8 4 -15 8 -15 10 0 2 7 4 15 4 8 0 15 -4 15 -10z
m795 0 c3 -5 1 -10 -4 -10 -6 0 -11 5 -11 10 0 6 2 10 4 10 3 0 8 -4 11 -10z
m32 -22 c-3 -8 -6 -5 -6 6 -1 11 2 17 5 13 3 -3 4 -12 1 -19z m-804 -13 c-3
-9 -8 -14 -10 -11 -3 3 -2 9 2 15 9 16 15 13 8 -4z m857 7 c0 -4 -9 -13 -20
-20 -19 -12 -20 -11 -8 8 13 20 28 27 28 12z m417 -24 c-3 -7 -5 -2 -5 12 0
14 2 19 5 13 2 -7 2 -19 0 -25z m-1077 7 c-7 -9 -15 -13 -17 -11 -7 7 7 26 19
26 6 0 6 -6 -2 -15z m430 -44 c0 -17 -18 -21 -24 -6 -3 9 0 15 9 15 8 0 15 -4
15 -9z m-615 -11 c3 -5 -1 -10 -10 -10 -9 0 -13 5 -10 10 3 6 8 10 10 10 2 0
7 -4 10 -10z m632 -22 c-3 -8 -6 -5 -6 6 -1 11 2 17 5 13 3 -3 4 -12 1 -19z
m-1307 -76 c0 -15 -2 -15 -10 -2 -13 20 -13 33 0 25 6 -3 10 -14 10 -23z
m1320 -21 c0 -5 -7 -11 -15 -15 -15 -5 -20 5 -8 17 9 10 23 9 23 -2z m91 -41
c11 0 17 -4 14 -10 -3 -5 -15 -10 -26 -10 -13 0 -19 7 -18 23 0 12 3 16 6 10
2 -7 14 -13 24 -13z m-70 -33 c-16 -16 -26 0 -10 19 9 11 15 12 17 4 2 -6 -1
-17 -7 -23z m-1386 -7 c3 -5 1 -10 -4 -10 -6 0 -11 5 -11 10 0 6 2 10 4 10 3
0 8 -4 11 -10z m1705 -8 c3 -2 -1 -7 -7 -9 -18 -6 -16 -23 1 -23 8 0 17 -13
21 -30 4 -19 13 -30 23 -30 15 -1 15 -2 -1 -11 -9 -6 -15 -14 -12 -20 4 -5 -1
-9 -9 -9 -9 0 -16 5 -16 10 0 10 -29 9 -60 -3 -8 -3 -28 -8 -45 -10 -16 -3
-37 -7 -45 -10 -8 -2 -12 -2 -7 0 4 3 7 15 7 28 0 18 -7 24 -34 29 -19 4 -47
4 -63 1 -25 -6 -26 -5 -10 8 21 17 22 31 2 24 -8 -4 -17 -2 -21 4 -3 6 -11 3
-19 -7 -7 -10 -19 -15 -28 -11 -9 3 -19 2 -22 -3 -3 -4 -1 -10 4 -12 5 -1 3
-9 -5 -16 -12 -11 -14 -10 -14 3 0 18 -26 21 -27 3 -1 -23 -8 -43 -18 -50 -12
-9 -35 10 -35 29 0 12 3 13 14 4 11 -9 14 -6 14 14 0 30 -23 33 -38 5 -6 -11
-16 -20 -22 -20 -6 0 -21 -11 -33 -24 l-23 -24 2 30 c1 16 9 34 19 39 9 6 17
16 17 24 0 22 43 61 66 61 15 0 20 -5 16 -18 -2 -10 1 -18 7 -18 6 0 11 6 11
13 0 7 9 18 20 25 16 10 20 10 20 -1 0 -9 13 -13 43 -11 23 1 47 -2 54 -7 8
-7 13 -4 18 11 6 20 8 20 24 6 10 -9 22 -16 28 -16 14 0 24 -26 17 -45 -10
-24 11 -17 45 14 34 32 40 54 14 49 -11 -2 -17 -11 -15 -21 3 -16 0 -16 -18
-5 -11 7 -16 14 -11 16 6 2 7 10 5 17 -5 11 8 13 68 8 40 -3 75 -8 78 -11z
m-1640 -2 c0 -5 -2 -10 -4 -10 -3 0 -8 5 -11 10 -3 6 -1 10 4 10 6 0 11 -4 11
-10z m1690 6 c0 -3 -4 -8 -10 -11 -5 -3 -10 -1 -10 4 0 6 5 11 10 11 6 0 10
-2 10 -4z m35 -6 c3 -5 1 -10 -4 -10 -6 0 -11 5 -11 10 0 6 2 10 4 10 3 0 8
-4 11 -10z m49 -5 c4 -10 -1 -15 -16 -15 -17 0 -18 2 -8 15 7 8 14 15 15 15 2
0 5 -7 9 -15z m89 -22 c-3 -6 -11 -14 -18 -17 -12 -4 -14 17 -6 52 1 1 7 -3
15 -10 7 -7 11 -18 9 -25z m-2116 21 c-3 -3 -12 -4 -19 -1 -8 3 -5 6 6 6 11 1
17 -2 13 -5z m1313 -20 c0 -2 -7 -4 -15 -4 -8 0 -15 4 -15 10 0 5 7 7 15 4 8
-4 15 -8 15 -10z m68 -5 c10 -13 9 -19 -3 -29 -13 -11 -15 -8 -15 20 0 19 1
31 3 29 1 -2 8 -11 15 -20z m-1113 -8 c3 -5 1 -12 -5 -16 -5 -3 -10 1 -10 9 0
18 6 21 15 7z m1730 -31 c-6 -9 -9 -9 -16 1 -10 17 0 34 13 21 6 -6 7 -16 3
-22z m-665 -10 c0 -5 -4 -10 -10 -10 -5 0 -10 5 -10 10 0 6 5 10 10 10 6 0 10
-4 10 -10z m1129 -34 l-1 -31 -10 28 c-5 15 -16 27 -24 27 -8 0 -14 4 -14 9 0
4 11 6 25 3 21 -3 25 -10 24 -36z m-412 28 c-3 -3 -12 -4 -19 -1 -8 3 -5 6 6
6 11 1 17 -2 13 -5z m-1887 -8 c0 -3 -4 -8 -10 -11 -5 -3 -10 -1 -10 4 0 6 5
11 10 11 6 0 10 -2 10 -4z m1130 -6 c0 -5 -2 -10 -4 -10 -3 0 -8 5 -11 10 -3
6 -1 10 4 10 6 0 11 -4 11 -10z m390 0 c0 -5 -4 -10 -10 -10 -5 0 -10 5 -10
10 0 6 5 10 10 10 6 0 10 -4 10 -10z m-104 -57 c-11 -11 -17 4 -9 23 7 18 8
18 11 1 2 -10 1 -21 -2 -24z m924 6 c0 -6 -4 -7 -10 -4 -5 3 -10 11 -10 16 0
6 5 7 10 4 6 -3 10 -11 10 -16z m-688 -11 c-12 -12 -35 -1 -27 12 3 5 13 6 21
3 10 -4 12 -9 6 -15z m68 12 c-8 -5 -16 -14 -16 -20 -3 -21 -4 -21 -21 -5 -14
14 -14 18 -2 26 8 5 23 9 34 9 16 0 17 -2 5 -10z m-1777 -25 c-7 -21 -13 -19
-13 6 0 11 4 18 10 14 5 -3 7 -12 3 -20z m2437 7 c0 -4 -5 -14 -10 -22 -9 -13
-11 -13 -19 0 -6 9 -6 19 1 27 10 12 28 9 28 -5z m-620 -12 c0 -5 -4 -10 -10
-10 -5 0 -10 5 -10 10 0 6 5 10 10 10 6 0 10 -4 10 -10z m-1855 -30 c3 -5 1
-10 -4 -10 -6 0 -11 5 -11 10 0 6 2 10 4 10 3 0 8 -4 11 -10z m1852 -6 c-3 -3
-12 -4 -19 -1 -8 3 -5 6 6 6 11 1 17 -2 13 -5z m633 -4 c0 -5 -4 -10 -10 -10
-5 0 -10 5 -10 10 0 6 5 10 10 10 6 0 10 -4 10 -10z m-2410 -54 c0 -11 -19
-15 -25 -6 -3 5 1 10 9 10 9 0 16 -2 16 -4z m-34 -43 c-7 -7 -26 7 -26 19 0 6
6 6 15 -2 9 -7 13 -15 11 -17z m-51 -13 c-3 -5 -11 -10 -16 -10 -6 0 -7 5 -4
10 3 6 11 10 16 10 6 0 7 -4 4 -10z m-372 -46 c-4 -10 -9 -12 -15 -6 -12 12
-1 35 12 27 5 -3 6 -13 3 -21z m50 -1 c-7 -2 -19 -2 -25 0 -7 3 -2 5 12 5 14
0 19 -2 13 -5z m-83 -44 c0 -6 -4 -7 -10 -4 -5 3 -10 11 -10 16 0 6 5 7 10 4
6 -3 10 -11 10 -16z m320 11 c0 -5 -4 -10 -10 -10 -5 0 -10 5 -10 10 0 6 5 10
10 10 6 0 10 -4 10 -10z m57 4 c-3 -3 -12 -4 -19 -1 -8 3 -5 6 6 6 11 1 17 -2
13 -5z m-28 -36 c-1 -19 -17 -55 -18 -40 -1 6 -8 12 -16 12 -8 0 -15 5 -15 10
0 6 7 10 15 10 8 0 15 5 15 10 0 6 5 10 10 10 6 0 10 -6 9 -12z m1656 -48 c-4
-6 -15 -8 -26 -5 -16 5 -19 1 -20 -27 -1 -25 -3 -27 -6 -10 -7 35 4 52 32 52
16 0 24 -4 20 -10z m-22 -87 c-7 -2 -19 -2 -25 0 -7 3 -2 5 12 5 14 0 19 -2
13 -5z m127 -27 c0 -3 -4 -8 -10 -11 -5 -3 -10 -1 -10 4 0 6 5 11 10 11 6 0
10 -2 10 -4z m95 -36 c3 -5 1 -10 -4 -10 -6 0 -11 5 -11 10 0 6 2 10 4 10 3 0
8 -4 11 -10z m275 -40 c0 -5 -4 -10 -10 -10 -5 0 -10 5 -10 10 0 6 5 10 10 10
6 0 10 -4 10 -10z m123 -53 c-9 -14 -22 23 -15 42 4 10 8 8 14 -8 4 -13 5 -28
1 -34z m-2363 34 c0 -6 -4 -13 -10 -16 -5 -3 -10 1 -10 9 0 9 5 16 10 16 6 0
10 -4 10 -9z m2587 -27 c-3 -3 -12 -4 -19 -1 -8 3 -5 6 6 6 11 1 17 -2 13 -5z
m-2887 -34 c0 -5 -5 -10 -11 -10 -5 0 -7 5 -4 10 3 6 8 10 11 10 2 0 4 -4 4
-10z m265 -20 c-3 -5 -10 -10 -16 -10 -5 0 -9 5 -9 10 0 6 7 10 16 10 8 0 12
-4 9 -10z m69 -29 c3 -5 -1 -14 -9 -21 -10 -9 -15 -9 -15 -1 0 6 6 11 13 11 8
0 7 4 -3 10 -9 6 -10 10 -3 10 6 0 14 -4 17 -9z m-337 -23 c-3 -8 -6 -5 -6 6
-1 11 2 17 5 13 3 -3 4 -12 1 -19z m293 -38 c0 -5 -5 -10 -11 -10 -5 0 -7 5
-4 10 3 6 8 10 11 10 2 0 4 -4 4 -10z m-287 -30 c-3 -12 -8 -19 -11 -16 -5 6
5 36 12 36 2 0 2 -9 -1 -20z m102 -69 c-7 -33 -29 -41 -39 -16 -5 15 31 61 41
52 3 -3 2 -19 -2 -36z m93 -3 c-2 -15 -11 -24 -27 -26 -23 -4 -23 -4 -5 22 24
32 36 33 32 4z m-433 -8 c3 -5 1 -10 -4 -10 -6 0 -11 5 -11 10 0 6 2 10 4 10
3 0 8 -4 11 -10z m404 -71 c-20 -13 -29 -11 -29 5 0 16 33 27 39 13 2 -5 -3
-13 -10 -18z m-95 5 c9 -24 7 -34 -8 -34 -14 0 -28 34 -18 44 10 10 20 6 26
-10z m-49 -34 c3 -5 1 -10 -4 -10 -6 0 -11 5 -11 10 0 6 2 10 4 10 3 0 8 -4
11 -10z m115 0 c0 -5 -4 -10 -10 -10 -5 0 -10 5 -10 10 0 6 5 10 10 10 6 0 10
-4 10 -10z m-32 -26 c22 -6 32 -44 12 -44 -5 0 -9 5 -7 12 1 6 -7 14 -18 16
-25 5 -44 22 -24 22 7 0 24 -3 37 -6z m-52 -74 c4 -8 12 -18 18 -22 7 -5 7 -8
-1 -8 -7 0 -13 -6 -13 -14 0 -7 -11 -29 -24 -49 -22 -32 -42 -91 -38 -109 1
-5 -7 -8 -19 -8 -15 0 -19 5 -15 18 14 48 24 120 25 200 1 12 5 22 10 22 5 0
8 -17 6 -37 -1 -21 -1 -30 2 -20 2 9 8 15 13 12 4 -3 6 14 3 37 -4 42 -4 43
11 18 8 -14 18 -32 22 -40z m-287 -50 c0 -41 -4 -84 -8 -94 -12 -32 -17 0 -13
103 4 113 22 105 21 -9z m327 43 c-11 -11 -19 6 -11 24 8 17 8 17 12 0 3 -10
2 -21 -1 -24z m-381 -1 c-3 -3 -11 0 -18 7 -9 10 -8 11 6 5 10 -3 15 -9 12
-12z m3200 -81 c-6 -5 -25 10 -25 20 0 5 6 4 14 -3 8 -7 12 -15 11 -17z m-25
-25 c0 -3 -4 -8 -10 -11 -5 -3 -10 -1 -10 4 0 6 5 11 10 11 6 0 10 -2 10 -4z
m-60 -46 c0 -11 -4 -20 -10 -20 -5 0 -10 9 -10 20 0 11 5 20 10 20 6 0 10 -9
10 -20z m130 -40 c0 -12 -28 -25 -36 -17 -9 9 6 27 22 27 8 0 14 -5 14 -10z
m-3191 -128 c-1 -51 -6 -95 -10 -98 -5 -3 -9 34 -8 83 0 48 0 93 -1 98 -1 6
-2 17 -1 25 1 13 2 13 11 0 5 -8 9 -57 9 -108z m3060 44 c1 -16 -2 -26 -6 -22
-4 3 -8 28 -9 54 -2 36 -1 41 6 22 4 -14 8 -38 9 -54z m-2970 8 c2 -2 1 -10
-3 -19 -5 -13 -9 -13 -28 -3 -13 7 -25 14 -27 15 -1 1 0 7 4 13 6 9 41 5 54
-6z m2967 -132 c-13 -12 -17 8 -10 40 l9 33 3 -33 c2 -19 1 -36 -2 -40z
m-3106 -36 c0 -3 -4 -8 -10 -11 -5 -3 -10 -1 -10 4 0 6 5 11 10 11 6 0 10 -2
10 -4z m3120 -10 c0 -2 -7 -9 -15 -16 -12 -10 -15 -10 -15 4 0 9 7 16 15 16 8
0 15 -2 15 -4z m-60 -16 c0 -5 -2 -10 -4 -10 -3 0 -8 5 -11 10 -3 6 -1 10 4
10 6 0 11 -4 11 -10z m50 -110 c0 -11 -4 -20 -8 -20 -5 0 -17 9 -27 20 -18 20
-17 20 8 20 20 0 27 -5 27 -20z m-65 -20 c3 -5 1 -10 -4 -10 -6 0 -11 5 -11
10 0 6 2 10 4 10 3 0 8 -4 11 -10z m58 -35 c4 -8 2 -17 -3 -20 -6 -4 -10 0
-10 9 0 8 -6 17 -12 19 -8 4 -7 6 3 6 9 1 19 -6 22 -14z m-3 -112 c0 -20 -3
-24 -11 -16 -7 7 -9 19 -6 27 10 24 17 19 17 -11z m60 0 c11 -10 20 -23 20
-30 0 -7 -11 -1 -25 13 -36 36 -33 49 5 17z m-200 -69 c0 -8 -19 -13 -24 -6
-3 5 1 9 9 9 8 0 15 -2 15 -3z m127 -38 c-4 -9 -10 -16 -16 -16 -13 0 -20 38
-7 43 16 6 30 -9 23 -27z m-4307 -186 c0 -5 -4 -10 -10 -10 -5 0 -10 5 -10 10
0 6 5 10 10 10 6 0 10 -4 10 -10z m3814 -80 c-5 -4 -21 -10 -36 -14 -22 -5
-28 -3 -28 9 0 11 6 15 19 10 11 -3 24 1 32 11 9 11 15 12 17 4 2 -6 0 -15 -4
-20z m-367 -72 c-3 -8 -6 -5 -6 6 -1 11 2 17 5 13 3 -3 4 -12 1 -19z m323 -27
c0 -5 -7 -14 -15 -21 -12 -10 -19 -10 -27 -2 -9 9 -8 12 5 12 9 0 17 5 17 10
0 6 5 10 10 10 6 0 10 -4 10 -9z m-2374 -38 c-10 -10 -19 5 -10 18 6 11 8 11
12 0 2 -7 1 -15 -2 -18z m-1566 -18 c10 -12 10 -19 2 -27 -19 -19 -14 -28 16
-28 24 -1 25 -2 10 -13 -9 -7 -20 -25 -23 -40 -4 -15 -11 -27 -15 -27 -5 0
-15 -3 -23 -6 -13 -4 -15 4 -13 50 2 39 -2 60 -12 68 -12 10 -11 14 4 25 23
17 39 16 54 -2z m3885 5 c3 -5 1 -10 -4 -10 -6 0 -11 5 -11 10 0 6 2 10 4 10
3 0 8 -4 11 -10z m-3975 -20 c0 -5 -9 -10 -20 -10 -11 0 -20 5 -20 10 0 6 9
10 20 10 11 0 20 -4 20 -10z m220 -10 c0 -5 -4 -10 -9 -10 -5 0 -14 -13 -21
-30 -11 -27 -45 -49 -57 -37 -6 7 67 87 79 87 4 0 8 -4 8 -10z m1372 -32 c-7
-7 -12 -8 -12 -2 0 14 12 26 19 19 2 -3 -1 -11 -7 -17z m-1612 -122 c0 -8 -12
-28 -26 -43 -26 -27 -26 -27 -19 -4 4 13 3 21 -2 18 -5 -3 -15 -2 -22 3 -16 9
-4 33 13 27 6 -2 20 -1 31 4 11 4 21 8 23 8 1 1 2 -6 2 -13z m40 -17 c0 -5 -4
-9 -8 -9 -5 0 -9 7 -9 15 0 8 4 12 9 9 4 -3 8 -9 8 -15z m28 -11 c-2 -6 -10
-14 -16 -16 -7 -2 -10 2 -6 12 7 18 28 22 22 4z m-163 -49 c0 -27 -4 -39 -13
-39 -11 0 -12 3 -4 13 9 10 7 19 -5 36 -13 19 -13 25 -2 32 19 11 24 3 24 -42z
m120 10 c-8 -12 -35 -12 -35 0 0 11 22 20 33 14 4 -2 5 -9 2 -14z m-65 -37 c0
-11 -8 -18 -20 -19 -22 -2 -28 22 -7 30 22 9 27 7 27 -11z m45 -43 c0 -7 -8
-15 -17 -17 -18 -3 -25 18 -11 32 10 10 28 1 28 -15z m55 -1 c0 -6 7 -19 16
-29 17 -19 13 -49 -7 -49 -6 0 -8 7 -5 16 4 10 1 14 -6 12 -7 -3 -16 -15 -20
-29 -5 -15 -6 -5 -3 25 3 27 5 55 5 63 0 8 5 11 10 8 6 -3 10 -11 10 -17z
m279 -45 c25 -21 53 -45 61 -53 36 -34 161 -143 192 -168 44 -34 92 -96 78
-100 -20 -7 -356 293 -381 340 -15 27 -1 22 50 -19z m-298 -110 c-12 -20 -14
-14 -5 12 4 9 9 14 11 11 3 -2 0 -13 -6 -23z m-41 -63 c0 -5 -5 -10 -11 -10
-5 0 -7 5 -4 10 3 6 8 10 11 10 2 0 4 -4 4 -10z m-30 -30 c0 -5 -2 -10 -4 -10
-3 0 -8 5 -11 10 -3 6 -1 10 4 10 6 0 11 -4 11 -10z m6107 -215 c12 -12 12
-19 3 -30 -14 -17 -50 -16 -43 2 3 7 9 10 14 7 13 -8 11 10 -3 24 -9 9 -9 12
1 12 7 0 19 -7 28 -15z m33 -74 c0 -5 -14 -14 -30 -21 -25 -10 -33 -10 -47 1
-15 13 -13 15 13 20 44 10 64 10 64 0z m-95 -41 c-3 -4 -13 -10 -24 -13 -17
-4 -18 -2 -9 13 7 10 17 16 25 13 7 -3 11 -9 8 -13z m70 -10 c-3 -5 -11 -10
-16 -10 -6 0 -7 5 -4 10 3 6 11 10 16 10 6 0 7 -4 4 -10z m-1088 -52 c-3 -7
-5 -2 -5 12 0 14 2 19 5 13 2 -7 2 -19 0 -25z m-420 -14 c-3 -3 -12 -4 -19 -1
-8 3 -5 6 6 6 11 1 17 -2 13 -5z m73 -14 c0 -5 -4 -10 -10 -10 -5 0 -10 5 -10
10 0 6 5 10 10 10 6 0 10 -4 10 -10z m80 6 c0 -2 -7 -7 -16 -10 -8 -3 -12 -2
-9 4 6 10 25 14 25 6z m-180 -34 c0 -4 -7 -17 -15 -28 -8 -12 -11 -25 -7 -30
4 -5 -3 0 -15 10 -13 11 -23 26 -23 34 0 12 3 12 15 2 12 -10 16 -9 21 4 6 16
24 22 24 8z m417 -29 c-3 -10 -5 -4 -5 12 0 17 2 24 5 18 2 -7 2 -21 0 -30z
m-199 9 c6 -18 -15 -14 -22 4 -4 10 -1 14 6 12 6 -2 14 -10 16 -16z m-176 -17
c-2 -14 -8 -25 -13 -25 -10 0 -12 34 -2 43 13 14 20 6 15 -18z m1437 -64 c19
-19 19 -19 -15 -18 -38 2 -39 3 -21 22 15 18 14 18 36 -4z m63 -49 c5 -16 2
-17 -18 -8 -16 8 -20 14 -12 23 12 15 24 10 30 -15z m-878 -58 c5 -14 4 -15
-9 -4 -17 14 -19 20 -6 20 5 0 12 -7 15 -16z m856 6 c0 -5 -7 -10 -16 -10 -8
0 -12 5 -9 10 3 6 10 10 16 10 5 0 9 -4 9 -10z m-1423 -32 c-3 -8 -6 -5 -6 6
-1 11 2 17 5 13 3 -3 4 -12 1 -19z m483 12 c0 -5 -8 -10 -17 -10 -15 0 -16 2
-3 10 19 12 20 12 20 0z m115 -30 c3 -5 1 -10 -4 -10 -6 0 -11 5 -11 10 0 6 2
10 4 10 3 0 8 -4 11 -10z m-648 -22 c-3 -8 -6 -5 -6 6 -1 11 2 17 5 13 3 -3 4
-12 1 -19z m40 6 c-3 -3 -12 -4 -19 -1 -8 3 -5 6 6 6 11 1 17 -2 13 -5z m69
-21 c-7 -7 -26 7 -26 19 0 6 6 6 15 -2 9 -7 13 -15 11 -17z m564 -26 c0 -18
-2 -19 -10 -7 -13 20 -13 43 0 35 6 -3 10 -16 10 -28z m-2240 13 c0 -5 -5 -10
-11 -10 -5 0 -7 5 -4 10 3 6 8 10 11 10 2 0 4 -4 4 -10z m1941 -86 c10 -28 5
-44 -10 -28 -5 5 -12 19 -16 32 -9 32 13 28 26 -4z m334 -4 c3 -5 -1 -10 -10
-10 -9 0 -13 5 -10 10 3 6 8 10 10 10 2 0 7 -4 10 -10z m-845 -11 c0 -6 -7 -9
-15 -5 -8 3 -18 -2 -23 -10 -7 -13 -10 -13 -23 2 -12 16 -12 17 3 11 10 -3 20
-2 23 3 8 14 35 12 35 -1z m40 -15 c0 -16 -16 -19 -25 -4 -8 13 4 32 16 25 5
-4 9 -13 9 -21z m52 4 c-9 -9 -15 -9 -24 0 -9 9 -7 12 12 12 19 0 21 -3 12
-12z m58 -20 c0 -6 -3 -8 -7 -5 -3 4 -12 2 -20 -4 -13 -11 -19 2 -6 14 11 11
33 8 33 -5z m91 -9 c8 -15 8 -24 0 -32 -6 -6 -11 -8 -11 -4 0 15 -2 23 -11 40
-6 11 -6 17 0 17 6 0 15 -9 22 -21z m1405 -9 c-1 -17 -6 -30 -14 -30 -7 0 -10
5 -6 11 3 6 1 15 -6 19 -15 9 -5 30 14 30 8 0 13 -12 12 -30z m-1116 -35 c-7
-8 -17 -12 -22 -9 -5 3 -1 12 9 19 22 17 30 11 13 -10z m-480 5 c0 -5 -7 -10
-15 -10 -8 0 -15 5 -15 10 0 6 7 10 15 10 8 0 15 -4 15 -10z m35 -10 c-3 -5
-10 -10 -16 -10 -5 0 -9 5 -9 10 0 6 7 10 16 10 8 0 12 -4 9 -10z m590 0 c3
-5 -1 -10 -9 -10 -9 0 -16 5 -16 10 0 6 4 10 9 10 6 0 13 -4 16 -10z m-535
-10 c0 -5 -4 -10 -9 -10 -6 0 -13 5 -16 10 -3 6 1 10 9 10 9 0 16 -4 16 -10z
m-995 -20 c3 -5 1 -10 -4 -10 -6 0 -11 5 -11 10 0 6 2 10 4 10 3 0 8 -4 11
-10z m2540 -10 c-11 -5 -27 -9 -35 -9 -9 0 -8 4 5 9 11 5 27 9 35 9 9 0 8 -4
-5 -9z m45 -10 c0 -5 -4 -10 -10 -10 -5 0 -10 5 -10 10 0 6 5 10 10 10 6 0 10
-4 10 -10z m-1640 -30 c0 -5 -4 -10 -10 -10 -5 0 -10 5 -10 10 0 6 5 10 10 10
6 0 10 -4 10 -10z m330 -4 c0 -3 -4 -8 -10 -11 -5 -3 -10 -1 -10 4 0 6 5 11
10 11 6 0 10 -2 10 -4z m257 -42 c-3 -3 -12 -4 -19 -1 -8 3 -5 6 6 6 11 1 17
-2 13 -5z m1053 -14 c0 -5 -4 -10 -10 -10 -5 0 -10 5 -10 10 0 6 5 10 10 10 6
0 10 -4 10 -10z m-2490 -10 c0 -5 -4 -10 -10 -10 -5 0 -10 5 -10 10 0 6 5 10
10 10 6 0 10 -4 10 -10z m1280 -25 c0 -14 -2 -25 -4 -25 -2 0 -6 11 -8 25 -3
14 -1 25 3 25 5 0 9 -11 9 -25z m1130 0 c17 -21 5 -31 -15 -12 -8 9 -15 18
-15 21 0 11 18 6 30 -9z m-1520 -25 c8 -5 11 -10 5 -10 -5 0 -17 5 -25 10 -8
5 -10 10 -5 10 6 0 17 -5 25 -10z m316 -27 c-8 -9 -37 18 -30 28 3 5 12 2 21
-6 8 -9 13 -19 9 -22z m-171 7 c3 -5 -1 -10 -9 -10 -8 0 -18 5 -21 10 -3 6 1
10 9 10 8 0 18 -4 21 -10z m402 4 c-3 -3 -12 -4 -19 -1 -8 3 -5 6 6 6 11 1 17
-2 13 -5z m-131 -19 c7 -5 10 -13 8 -17 -5 -8 -76 10 -89 24 -13 13 66 7 81
-7z m1144 -5 c0 -5 -7 -10 -15 -10 -8 0 -15 5 -15 10 0 6 7 10 15 10 8 0 15
-4 15 -10z m-1070 -20 c0 -5 -4 -10 -9 -10 -6 0 -13 5 -16 10 -3 6 1 10 9 10
9 0 16 -4 16 -10z m-1385 -20 c0 -8 -8 -16 -17 -18 -10 -2 -18 2 -18 10 0 10
-3 9 -10 -2 -8 -12 -10 -10 -10 8 0 20 4 23 28 20 16 -2 27 -9 27 -18z m1484
6 c9 -11 7 -15 -9 -19 -11 -3 -20 -1 -20 4 0 5 -8 9 -17 9 -15 0 -16 2 -3 10
21 13 36 12 49 -4z m991 0 c0 -3 -4 -8 -10 -11 -5 -3 -10 -1 -10 4 0 6 5 11
10 11 6 0 10 -2 10 -4z m-1277 -33 c-7 -2 -21 -2 -30 0 -10 3 -4 5 12 5 17 0
24 -2 18 -5z m192 -52 c-3 -6 -14 -10 -23 -10 -15 1 -15 2 1 6 9 2 17 9 17 15
0 6 3 9 6 5 3 -3 3 -10 -1 -16z m-125 -11 c0 -5 -2 -10 -4 -10 -3 0 -8 5 -11
10 -3 6 -1 10 4 10 6 0 11 -4 11 -10z m215 0 c13 -6 15 -9 5 -9 -8 0 -22 4
-30 9 -18 12 -2 12 25 0z m-581 -16 c9 -24 7 -27 -9 -10 -17 17 -19 26 -6 26
5 0 12 -7 15 -16z m646 -4 c0 -5 -7 -7 -15 -4 -8 4 -15 8 -15 10 0 2 7 4 15 4
8 0 15 -4 15 -10z m-50 -30 c0 -9 -42 -22 -48 -15 -3 2 -2 11 1 19 6 15 47 11
47 -4z m85 -10 c3 -5 -1 -10 -9 -10 -9 0 -16 5 -16 10 0 6 4 10 9 10 6 0 13
-4 16 -10z m-47 -20 c-7 -10 -14 -18 -15 -16 -6 6 9 36 18 36 5 0 4 -9 -3 -20z
m-761 4 c-3 -3 -12 -4 -19 -1 -8 3 -5 6 6 6 11 1 17 -2 13 -5z m43 -46 c0 -5
-9 -8 -21 -8 -11 0 -29 -5 -40 -10 -13 -7 -19 -7 -19 0 0 5 7 10 15 10 18 0
20 20 3 21 -7 0 -4 4 7 8 20 8 55 -6 55 -21z m50 16 c0 -8 -5 -12 -10 -9 -6 4
-8 11 -5 16 9 14 15 11 15 -7z m739 -23 c-16 -5 -33 15 -24 30 6 9 12 7 22 -7
9 -13 10 -20 2 -23z m828 17 c-3 -8 -6 -5 -6 6 -1 11 2 17 5 13 3 -3 4 -12 1
-19z m-1737 -30 c0 -3 -9 -4 -20 -1 -23 6 -22 5 -14 27 6 15 8 15 20 -1 7 -10
14 -21 14 -25z m810 22 c0 -5 -4 -10 -10 -10 -5 0 -10 5 -10 10 0 6 5 10 10
10 6 0 10 -4 10 -10z m40 0 c0 -5 -4 -10 -10 -10 -5 0 -10 5 -10 10 0 6 5 10
10 10 6 0 10 -4 10 -10z m-966 -28 c2 -4 -4 -8 -15 -8 -10 0 -19 4 -19 8 0 4
6 8 14 8 8 0 17 -4 20 -8z m313 -8 c-3 -3 -12 -4 -19 -1 -8 3 -5 6 6 6 11 1
17 -2 13 -5z m124 -31 c-8 -15 -10 -15 -11 -2 0 17 10 32 18 25 2 -3 -1 -13
-7 -23z m-146 -6 c12 -9 14 -16 7 -21 -6 -4 -20 2 -32 14 -23 23 -5 28 25 7z
m482 -12 c6 -14 7 -25 2 -25 -20 0 -24 2 -21 12 1 6 -3 16 -9 24 -9 11 -8 14
2 14 8 0 19 -11 26 -25z m-2197 1 c0 -2 -7 -6 -15 -10 -8 -3 -15 -1 -15 4 0 6
7 10 15 10 8 0 15 -2 15 -4z m1765 -32 c-8 -9 -15 -20 -15 -26 0 -6 -2 -9 -5
-6 -9 8 17 58 27 52 4 -3 1 -12 -7 -20z m1485 6 c0 -5 -7 -10 -16 -10 -8 0
-12 5 -9 10 3 6 10 10 16 10 5 0 9 -4 9 -10z m-2683 -22 c-3 -8 -6 -5 -6 6 -1
11 2 17 5 13 3 -3 4 -12 1 -19z m1353 12 c0 -5 -5 -10 -11 -10 -5 0 -7 5 -4
10 3 6 8 10 11 10 2 0 4 -4 4 -10z m289 -29 c-15 -5 -22 6 -14 19 6 9 10 9 16
-1 5 -8 4 -15 -2 -18z m-409 -7 c0 -8 -4 -12 -10 -9 -5 3 -10 13 -10 21 0 8 5
12 10 9 6 -3 10 -13 10 -21z m-1390 -4 c0 -9 -37 -20 -44 -13 -3 3 1 11 7 18
12 13 37 9 37 -5z m1320 -5 c27 -16 19 -18 -29 -9 -17 4 -31 10 -31 15 0 13
32 10 60 -6z m-1510 -11 c0 -8 -5 -12 -10 -9 -6 4 -8 11 -5 16 9 14 15 11 15
-7z m1926 3 c8 3 14 -1 14 -10 0 -9 -9 -14 -23 -13 -14 0 -23 7 -23 18 0 11 4
14 9 9 5 -5 16 -7 23 -4z m-1833 -17 c3 -11 1 -18 -4 -14 -5 3 -9 12 -9 20 0
20 7 17 13 -6z m1787 10 c0 -5 -4 -10 -10 -10 -5 0 -10 5 -10 10 0 6 5 10 10
10 6 0 10 -4 10 -10z m-200 -4 c0 -3 -4 -8 -10 -11 -5 -3 -10 -1 -10 4 0 6 5
11 10 11 6 0 10 -2 10 -4z m356 -5 c-4 -5 0 -11 6 -14 7 -2 10 -8 5 -12 -10
-12 -31 11 -23 24 4 6 9 11 12 11 3 0 3 -4 0 -9z m-471 -41 c-3 -5 -10 -10
-16 -10 -5 0 -9 5 -9 10 0 6 7 10 16 10 8 0 12 -4 9 -10z m341 -10 c8 0 14 -5
14 -11 0 -6 -7 -8 -16 -5 -9 3 -20 6 -25 6 -4 0 -5 8 -2 17 4 11 8 12 11 5 2
-7 10 -12 18 -12z m-1309 4 c-3 -3 -12 -4 -19 -1 -8 3 -5 6 6 6 11 1 17 -2 13
-5z m1388 -4 c3 -5 1 -10 -4 -10 -6 0 -11 5 -11 10 0 6 2 10 4 10 3 0 8 -4 11
-10z m29 -26 c3 -8 2 -12 -4 -9 -6 3 -10 10 -10 16 0 14 7 11 14 -7z m176 -24
c0 -5 -4 -10 -10 -10 -5 0 -10 5 -10 10 0 6 5 10 10 10 6 0 10 -4 10 -10z
m890 -21 c0 -6 -9 -7 -21 -4 -14 5 -25 2 -30 -6 -7 -11 -9 -10 -9 3 0 10 9 18
23 20 26 5 37 1 37 -13z m-1030 -4 c0 -8 -4 -15 -10 -15 -5 0 -10 7 -10 15 0
8 5 15 10 15 6 0 10 -7 10 -15z m383 -21 c-3 -9 -9 -11 -12 -6 -3 5 -13 12
-21 15 -9 3 -4 6 12 6 21 1 26 -3 21 -15z m-60 -4 c7 0 18 -4 26 -9 12 -8 11
-12 -4 -27 -17 -17 -17 -17 -11 4 7 19 4 22 -24 22 -17 0 -40 -5 -51 -10 -13
-8 -19 -7 -19 0 0 13 40 30 58 24 8 -2 19 -4 25 -4z m-1853 -10 c0 -5 -5 -10
-11 -10 -5 0 -7 5 -4 10 3 6 8 10 11 10 2 0 4 -4 4 -10z m1525 -18 c-3 -3 -11
0 -18 7 -9 10 -8 11 6 5 10 -3 15 -9 12 -12z m974 4 c16 -19 -14 -45 -31 -28
-9 9 -9 12 1 12 8 0 11 6 7 15 -7 19 8 20 23 1z m-1664 -6 c3 -5 1 -10 -4 -10
-6 0 -11 5 -11 10 0 6 2 10 4 10 3 0 8 -4 11 -10z m201 -26 c-4 -9 -9 -15 -11
-12 -3 3 -3 13 1 22 4 9 9 15 11 12 3 -3 3 -13 -1 -22z m-286 2 c0 -3 -4 -8
-10 -11 -5 -3 -10 -1 -10 4 0 6 5 11 10 11 6 0 10 -2 10 -4z m230 -26 c0 -6
-4 -10 -10 -10 -5 0 -10 5 -10 10 0 14 -27 12 -33 -2 -4 -8 -6 -7 -6 4 -1 9 5
18 12 21 15 5 47 -10 47 -23z m563 5 c-3 -9 -8 -14 -10 -11 -3 3 -2 9 2 15 9
16 15 13 8 -4z m-203 -5 c0 -5 -5 -10 -11 -10 -5 0 -7 5 -4 10 3 6 8 10 11 10
2 0 4 -4 4 -10z m497 -16 c-3 -3 -12 -4 -19 -1 -8 3 -5 6 6 6 11 1 17 -2 13
-5z m-251 -44 c13 0 24 -4 24 -9 0 -5 -10 -7 -22 -3 -14 3 -19 2 -14 -6 12
-20 -10 -13 -29 8 -15 16 -21 18 -33 7 -11 -9 -10 -4 3 16 17 27 18 27 32 7 8
-11 25 -20 39 -20z m-448 18 c-7 -20 -48 -23 -48 -4 0 11 9 16 26 16 16 0 24
-5 22 -12z m42 2 c0 -5 -7 -7 -15 -4 -8 4 -15 8 -15 10 0 2 7 4 15 4 8 0 15
-4 15 -10z m-165 -30 c1 -10 -2 -17 -7 -14 -4 3 -8 15 -8 26 0 26 13 15 15
-12z m195 6 c0 -3 -4 -8 -10 -11 -5 -3 -10 -1 -10 4 0 6 5 11 10 11 6 0 10 -2
10 -4z m1208 -41 c-3 -3 -9 2 -12 12 -6 14 -5 15 5 6 7 -7 10 -15 7 -18z
m-838 -23 c0 -7 -8 -12 -17 -10 -24 4 -27 24 -3 24 11 0 20 -6 20 -14z m-733
-14 c-3 -8 -6 -5 -6 6 -1 11 2 17 5 13 3 -3 4 -12 1 -19z m63 -13 c11 -13 9
-15 -17 -13 -21 1 -29 6 -26 15 7 18 28 16 43 -2z m430 -1 c0 -8 -4 -12 -10
-9 -5 3 -10 10 -10 16 0 5 5 9 10 9 6 0 10 -7 10 -16z m1200 6 c0 -5 -5 -10
-11 -10 -5 0 -7 5 -4 10 3 6 8 10 11 10 2 0 4 -4 4 -10z m-1140 -20 c-20 -13
-33 -13 -25 0 3 6 14 10 23 10 15 0 15 -2 2 -10z m170 -43 c-10 -10 -12 -8 -7
11 4 16 1 22 -11 22 -15 0 -15 2 -2 10 21 13 39 -25 20 -43z m483 46 c-7 -2
-19 -2 -25 0 -7 3 -2 5 12 5 14 0 19 -2 13 -5z m-68 -39 c-18 -13 -45 -9 -45
8 0 6 7 8 15 4 8 -3 21 1 27 8 8 9 14 10 17 3 2 -5 -4 -16 -14 -23z m-1118 6
c11 -16 10 -18 -1 -14 -15 6 -30 34 -18 34 4 0 13 -9 19 -20z m103 10 c12 -8
11 -10 -7 -10 -13 0 -23 5 -23 10 0 13 11 13 30 0z m480 -11 c0 -12 -17 -11
-25 1 -3 5 -13 7 -23 4 -13 -5 -14 -4 -3 4 15 11 51 4 51 -9z m201 -16 c-8
-15 -10 -15 -11 -2 0 17 10 32 18 25 2 -3 -1 -13 -7 -23z m-151 7 c0 -5 -5
-10 -11 -10 -5 0 -7 5 -4 10 3 6 8 10 11 10 2 0 4 -4 4 -10z m220 6 c0 -2 -7
-6 -15 -10 -8 -3 -15 -1 -15 4 0 6 7 10 15 10 8 0 15 -2 15 -4z m-800 -16 c0
-5 -2 -10 -4 -10 -3 0 -8 5 -11 10 -3 6 -1 10 4 10 6 0 11 -4 11 -10z m1000 6
c0 -2 -9 -6 -20 -9 -11 -3 -18 -1 -14 4 5 9 34 13 34 5z m-300 -10 c0 -3 -4
-8 -10 -11 -5 -3 -10 -1 -10 4 0 6 5 11 10 11 6 0 10 -2 10 -4z m-187 -21 c20
0 37 -3 37 -7 0 -9 1 -9 -50 -12 -44 -4 -60 2 -60 21 0 11 5 13 18 7 9 -4 34
-8 55 -9z m117 -5 c0 -13 -7 -20 -20 -20 -11 0 -20 7 -20 16 0 8 4 13 9 9 5
-3 12 -1 16 5 10 16 15 12 15 -10z m523 3 c-7 -2 -19 -2 -25 0 -7 3 -2 5 12 5
14 0 19 -2 13 -5z m-853 -17 c0 -3 -4 -8 -10 -11 -5 -3 -10 -1 -10 4 0 6 5 11
10 11 6 0 10 -2 10 -4z m-315 -26 c3 -5 1 -10 -4 -10 -6 0 -11 5 -11 10 0 6 2
10 4 10 3 0 8 -4 11 -10z m205 -1 c0 -7 14 -10 35 -7 24 3 35 0 35 -9 0 -16
-46 -17 -89 -2 -24 9 -29 14 -19 20 18 12 38 11 38 -2z m232 -31 c-9 -9 -12
-7 -12 12 0 19 3 21 12 12 9 -9 9 -15 0 -24z m-317 12 c-3 -5 -13 -10 -21 -10
-8 0 -14 5 -14 10 0 6 9 10 21 10 11 0 17 -4 14 -10z m295 -5 c0 -8 -2 -15 -4
-15 -2 0 -6 7 -10 15 -3 8 -1 15 4 15 6 0 10 -7 10 -15z m86 -30 c-9 -14 -22
-23 -28 -19 -7 5 -5 12 7 21 11 7 15 13 9 13 -5 0 -2 4 6 10 22 14 25 4 6 -25z
m128 20 c-10 -8 -25 -15 -31 -15 -7 0 -13 -5 -13 -12 0 -6 -2 -9 -5 -7 -2 3
-2 15 2 27 4 17 13 22 36 22 29 0 30 -1 11 -15z m66 11 c0 -2 3 -11 6 -20 4
-11 0 -16 -13 -16 -12 0 -19 8 -20 20 -1 11 4 20 13 20 8 0 14 -2 14 -4z m610
-6 c0 -5 -12 -10 -27 -10 -22 0 -25 2 -13 10 20 13 40 13 40 0z m-980 -10 c0
-5 -4 -10 -10 -10 -5 0 -10 5 -10 10 0 6 5 10 10 10 6 0 10 -4 10 -10z m770
-4 c0 -11 -19 -15 -25 -6 -3 5 1 10 9 10 9 0 16 -2 16 -4z m47 -28 c-3 -8 -6
-5 -6 6 -1 11 2 17 5 13 3 -3 4 -12 1 -19z m-867 8 c0 -3 -4 -8 -10 -11 -5 -3
-10 -1 -10 4 0 6 5 11 10 11 6 0 10 -2 10 -4z m98 -23 c4 -10 7 -24 6 -30 -1
-7 -2 -30 -3 -50 -1 -25 -4 -33 -10 -25 -5 8 -33 15 -70 17 -64 3 -96 18 -87
42 3 7 -1 13 -9 13 -8 0 -15 2 -15 4 0 2 -3 12 -7 22 -5 15 -2 16 23 10 41
-11 59 -27 42 -37 -10 -7 -9 -9 5 -9 9 0 17 5 17 10 0 6 6 10 13 10 8 0 22 9
32 20 22 25 51 26 63 3z m372 -55 c0 -5 -10 -8 -21 -8 -17 0 -20 5 -16 21 4
14 -1 23 -16 29 -17 7 -18 9 -4 9 9 1 17 7 17 14 1 12 39 -51 40 -65z m-683
45 c2 -6 -5 -13 -17 -16 -12 -3 -20 0 -20 7 0 26 29 33 37 9z m79 -61 c34 -16
31 -36 -3 -28 -16 4 -36 7 -45 7 -14 0 -18 9 -18 34 0 46 33 68 38 26 2 -19
12 -32 28 -39z m351 36 c-3 -7 -5 -2 -5 12 0 14 2 19 5 13 2 -7 2 -19 0 -25z
m123 12 c0 -5 -5 -10 -11 -10 -5 0 -7 5 -4 10 3 6 8 10 11 10 2 0 4 -4 4 -10z
m60 -14 c0 -11 -19 -15 -25 -6 -3 5 1 10 9 10 9 0 16 -2 16 -4z m-210 -22 c0
-8 -5 -12 -10 -9 -6 4 -8 11 -5 16 9 14 15 11 15 -7z m95 6 c-3 -5 -11 -10
-16 -10 -6 0 -7 5 -4 10 3 6 11 10 16 10 6 0 7 -4 4 -10z m235 -16 c0 -8 -4
-12 -10 -9 -5 3 -10 13 -10 21 0 8 5 12 10 9 6 -3 10 -13 10 -21z m-350 -30
c0 -8 -4 -14 -10 -14 -5 0 -10 2 -10 4 0 2 -3 12 -6 20 -5 12 -2 15 10 10 9
-3 16 -12 16 -20z m223 6 c4 -17 2 -20 -14 -15 -26 9 -43 -3 -29 -20 8 -9 5
-11 -15 -7 l-25 4 31 29 c37 34 45 36 52 9z m-123 6 c0 -3 -4 -8 -10 -11 -5
-3 -10 -1 -10 4 0 6 5 11 10 11 6 0 10 -2 10 -4z m42 -18 c-7 -7 -12 -8 -12
-2 0 14 12 26 19 19 2 -3 -1 -11 -7 -17z m188 2 c0 -5 -7 -10 -15 -10 -8 0
-15 5 -15 10 0 6 7 10 15 10 8 0 15 -4 15 -10z m-393 -56 c-10 -10 -37 16 -37
34 0 13 4 12 22 -5 12 -13 19 -25 15 -29z m96 26 c4 -17 0 -20 -26 -19 -30 0
-31 1 -9 10 13 5 20 13 17 19 -3 5 -2 10 3 10 5 0 12 -9 15 -20z m-213 0 c0
-5 -7 -10 -16 -10 -8 0 -12 5 -9 10 3 6 10 10 16 10 5 0 9 -4 9 -10z m1200 0
c0 -5 -2 -10 -4 -10 -3 0 -8 5 -11 10 -3 6 -1 10 4 10 6 0 11 -4 11 -10z m215
-10 c-3 -5 -11 -10 -16 -10 -6 0 -7 5 -4 10 3 6 11 10 16 10 6 0 7 -4 4 -10z
m-3265 -10 c0 -5 -2 -10 -4 -10 -3 0 -8 5 -11 10 -3 6 -1 10 4 10 6 0 11 -4
11 -10z m2310 6 c0 -11 -19 -15 -25 -6 -3 5 1 10 9 10 9 0 16 -2 16 -4z m307
-2 c-3 -3 -12 -4 -19 -1 -8 3 -5 6 6 6 11 1 17 -2 13 -5z m93 -4 c0 -5 -4 -10
-10 -10 -5 0 -10 5 -10 10 0 6 5 10 10 10 6 0 10 -4 10 -10z m-500 -10 c0 -5
-4 -10 -10 -10 -5 0 -10 5 -10 10 0 6 5 10 10 10 6 0 10 -4 10 -10z m230 0 c0
-5 -4 -10 -10 -10 -5 0 -10 5 -10 10 0 6 5 10 10 10 6 0 10 -4 10 -10z m630
-10 c0 -5 -7 -10 -16 -10 -8 0 -12 5 -9 10 3 6 10 10 16 10 5 0 9 -4 9 -10z
m-824 -26 c-4 -9 -9 -15 -11 -12 -3 3 -3 13 1 22 4 9 9 15 11 12 3 -3 3 -13
-1 -22z m94 17 c0 -6 -4 -12 -8 -15 -5 -3 -9 1 -9 9 0 8 4 15 9 15 4 0 8 -4 8
-9z m775 -11 c4 -7 12 -7 25 0 27 14 34 12 16 -5 -16 -16 -62 -20 -70 -6 -6 9
3 21 15 21 4 0 11 -5 14 -10z m-1345 -10 c0 -5 -2 -10 -4 -10 -3 0 -8 5 -11
10 -3 6 -1 10 4 10 6 0 11 -4 11 -10z m1277 -12 c-3 -8 -6 -5 -6 6 -1 11 2 17
5 13 3 -3 4 -12 1 -19z m-2277 2 c0 -5 -5 -10 -11 -10 -5 0 -7 5 -4 10 3 6 8
10 11 10 2 0 4 -4 4 -10z m1565 -10 c3 -5 -1 -10 -9 -10 -9 0 -16 5 -16 10 0
6 4 10 9 10 6 0 13 -4 16 -10z m-2545 -4 c0 -3 -4 -8 -10 -11 -5 -3 -10 -1
-10 4 0 6 5 11 10 11 6 0 10 -2 10 -4z m570 0 c0 -3 -4 -8 -10 -11 -5 -3 -10
-1 -10 4 0 6 5 11 10 11 6 0 10 -2 10 -4z m2245 -5 c3 -5 1 -12 -5 -16 -5 -3
-10 1 -10 9 0 18 6 21 15 7z m575 5 c0 -3 -4 -8 -10 -11 -5 -3 -10 -1 -10 4 0
6 5 11 10 11 6 0 10 -2 10 -4z m-1143 -35 c21 -27 22 -71 2 -71 -5 0 -7 11 -3
25 4 17 2 26 -7 29 -8 2 -35 10 -61 16 -27 7 -48 16 -48 19 0 4 21 7 48 8 40
2 50 -2 69 -26z m-2219 7 c-3 -7 -17 -14 -32 -16 -18 -2 -26 0 -22 7 4 5 13 8
21 4 8 -3 15 0 15 6 0 6 5 11 11 11 6 0 9 -6 7 -12z m712 -4 c0 -8 -4 -12 -10
-9 -5 3 -10 10 -10 16 0 5 5 9 10 9 6 0 10 -7 10 -16z m2580 6 c0 -5 -4 -10
-10 -10 -5 0 -10 5 -10 10 0 6 5 10 10 10 6 0 10 -4 10 -10z m-880 -15 c0 -8
-4 -15 -9 -15 -5 0 -11 7 -15 15 -3 9 0 15 9 15 8 0 15 -7 15 -15z m-51 -6
c-18 -11 -39 -11 -39 0 0 5 12 9 26 9 18 0 22 -3 13 -9z m202 -13 c32 6 33 5
14 -9 -27 -20 -79 -11 -70 11 5 12 1 12 -15 -3 -17 -15 -20 -16 -20 -2 0 20
32 28 46 10 8 -9 23 -11 45 -7z m-2013 2 c-2 -6 -10 -14 -16 -16 -7 -2 -10 2
-6 12 7 18 28 22 22 4z m1737 2 c3 -5 -1 -10 -10 -10 -9 0 -13 5 -10 10 3 6 8
10 10 10 2 0 7 -4 10 -10z m465 -24 c0 -5 -3 -6 -7 -3 -3 4 -11 3 -18 -3 -12
-10 -55 -2 -55 11 0 4 18 7 40 6 22 -1 40 -6 40 -11z m-2237 -10 c4 -10 1 -13
-9 -9 -7 3 -14 9 -14 14 0 14 17 10 23 -5z m-40 -3 c-7 -2 -19 -2 -25 0 -7 3
-2 5 12 5 14 0 19 -2 13 -5z m147 3 c0 -3 -4 -8 -10 -11 -5 -3 -10 -1 -10 4 0
6 5 11 10 11 6 0 10 -2 10 -4z m2470 0 c0 -3 -4 -8 -10 -11 -5 -3 -10 -1 -10
4 0 6 5 11 10 11 6 0 10 -2 10 -4z m-3090 -31 c0 -8 -4 -15 -10 -15 -5 0 -7 7
-4 15 4 8 8 15 10 15 2 0 4 -7 4 -15z m173 1 c-3 -5 11 -7 31 -4 20 2 36 0 36
-4 0 -4 -9 -8 -20 -8 -12 0 -20 -7 -21 -17 -1 -17 -2 -17 -6 0 -3 10 -12 17
-21 16 -41 -4 -61 1 -56 15 3 7 18 13 34 12 15 -1 26 -5 23 -10z m417 -6 c8
-5 11 -10 5 -10 -5 0 -17 5 -25 10 -8 5 -10 10 -5 10 6 0 17 -5 25 -10z m2840
6 c0 -2 -7 -7 -16 -10 -8 -3 -12 -2 -9 4 6 10 25 14 25 6z m-367 -13 c-7 -2
-19 -2 -25 0 -7 3 -2 5 12 5 14 0 19 -2 13 -5z m-2923 -39 c0 -3 -7 -12 -15
-20 -16 -17 -18 -14 -9 10 6 15 24 23 24 10z m2120 -4 c20 -12 9 -21 -18 -13
-12 3 -19 9 -16 14 7 11 15 11 34 -1z m350 6 c0 -3 -4 -8 -10 -11 -5 -3 -10
-1 -10 4 0 6 5 11 10 11 6 0 10 -2 10 -4z m200 -6 c11 -7 8 -8 -13 -6 -15 1
-30 6 -34 9 -10 11 30 8 47 -3z m-370 -20 c0 -5 0 -13 -1 -16 -1 -12 25 -24
54 -24 15 0 27 5 27 10 0 6 -13 10 -30 10 -16 0 -30 4 -30 9 0 19 18 21 55 5
25 -10 35 -20 31 -30 -4 -9 2 -18 16 -23 12 -4 17 -11 11 -14 -5 -4 -25 -1
-43 6 -25 9 -34 9 -37 0 -3 -9 -12 -8 -36 1 -18 8 -39 11 -47 8 -13 -5 -13 -3
0 13 8 10 14 26 12 37 -2 10 2 18 7 18 6 0 11 -4 11 -10z m196 -16 c-21 -20
-28 -17 -16 6 6 11 15 18 21 15 5 -4 3 -12 -5 -21z m754 16 c0 -7 6 -7 19 0
23 12 37 -3 18 -19 -19 -15 -107 -25 -107 -11 0 5 7 10 15 10 8 0 14 3 14 8
-3 17 2 22 21 22 11 0 20 -5 20 -10z m-3420 -14 c0 -8 -4 -17 -9 -21 -6 -3 -9
4 -8 15 1 23 17 28 17 6z m345 4 c-3 -5 -10 -10 -16 -10 -5 0 -9 5 -9 10 0 6
7 10 16 10 8 0 12 -4 9 -10z m2479 2 c2 -4 -2 -16 -10 -27 -8 -10 -14 -14 -14
-8 0 7 5 15 12 19 8 5 6 10 -8 15 -16 6 -16 8 -2 8 9 1 19 -2 22 -7z m-2544
-12 c0 -5 -2 -10 -4 -10 -3 0 -8 5 -11 10 -3 6 -1 10 4 10 6 0 11 -4 11 -10z
m2853 3 c-7 -2 -19 -2 -25 0 -7 3 -2 5 12 5 14 0 19 -2 13 -5z m137 -51 c0 -4
-4 -13 -9 -21 -6 -10 -10 -10 -16 -2 -4 7 -21 11 -37 9 -42 -4 -46 15 -6 28
31 9 68 2 68 -14z m-620 -2 c0 -5 -4 -10 -10 -10 -5 0 -10 5 -10 10 0 6 5 10
10 10 6 0 10 -4 10 -10z m270 6 c0 -3 -4 -8 -10 -11 -5 -3 -10 -1 -10 4 0 6 5
11 10 11 6 0 10 -2 10 -4z m-160 -10 c0 -3 -4 -8 -10 -11 -5 -3 -10 -1 -10 4
0 6 5 11 10 11 6 0 10 -2 10 -4z m70 -6 c0 -5 -4 -10 -10 -10 -5 0 -10 5 -10
10 0 6 5 10 10 10 6 0 10 -4 10 -10z m650 0 c0 -5 -7 -10 -16 -10 -8 0 -12 5
-9 10 3 6 10 10 16 10 5 0 9 -4 9 -10z m-50 -10 c-8 -5 -24 -10 -35 -10 -17 0
-17 2 -5 10 8 5 24 10 35 10 17 0 17 -2 5 -10z m-3440 -32 c0 -23 -3 -29 -11
-21 -6 6 -8 20 -4 32 9 30 15 26 15 -11z m340 28 c0 -3 -4 -8 -10 -11 -5 -3
-10 -1 -10 4 0 6 5 11 10 11 6 0 10 -2 10 -4z m2230 -21 c28 -14 38 -39 30
-70 -2 -5 -3 -18 -4 -28 0 -20 -31 -19 -31 0 0 7 -9 18 -19 26 -19 14 -19 14
2 35 20 20 16 27 -10 23 -5 0 -8 6 -8 14 0 19 4 19 40 0z m95 5 c3 -5 2 -10
-4 -10 -5 0 -13 5 -16 10 -3 6 -2 10 4 10 5 0 13 -4 16 -10z m673 -8 c3 -9 -2
-13 -14 -10 -9 1 -19 9 -22 16 -3 9 2 13 14 10 9 -1 19 -9 22 -16z m-3298 4
c0 -3 -4 -8 -10 -11 -5 -3 -10 -1 -10 4 0 6 5 11 10 11 6 0 10 -2 10 -4z
m2968 -25 c3 -8 -1 -12 -9 -9 -7 2 -15 10 -17 17 -3 8 1 12 9 9 7 -2 15 -10
17 -17z m-44 -17 c3 -9 12 -14 19 -11 8 3 20 1 28 -4 10 -6 6 -9 -14 -9 -15 0
-30 -7 -33 -15 -5 -13 -9 -13 -35 1 -16 8 -29 19 -29 24 0 6 -9 10 -19 10 -11
0 -22 4 -25 9 -3 4 19 9 48 10 41 1 55 -3 60 -15z m-544 -14 c0 -11 -4 -20 -8
-20 -4 0 -8 9 -9 20 -1 11 2 20 8 20 5 0 9 -9 9 -20z m60 -7 c0 -14 -3 -23 -7
-20 -3 4 -12 2 -20 -4 -20 -17 -17 10 4 33 21 24 23 23 23 -9z m40 17 c0 -5
-4 -10 -10 -10 -5 0 -10 5 -10 10 0 6 5 10 10 10 6 0 10 -4 10 -10z m367 -22
c-2 -7 -14 -12 -27 -10 -12 1 -29 -3 -36 -9 -8 -6 -26 -8 -44 -4 -21 5 -30 3
-30 -6 0 -11 -2 -11 -12 0 -11 10 -9 15 6 27 26 18 150 20 143 2z m-2507 -17
c0 -27 -14 -33 -36 -16 -17 13 -18 14 -1 15 9 0 17 5 17 10 0 6 5 10 10 10 6
0 10 -9 10 -19z m-225 -11 c-3 -5 -12 -10 -18 -10 -7 0 -6 4 3 10 19 12 23 12
15 0z m285 0 c0 -5 -5 -10 -11 -10 -5 0 -7 5 -4 10 3 6 8 10 11 10 2 0 4 -4 4
-10z m85 0 c-28 -12 -57 -12 -50 0 3 6 21 10 38 9 27 0 29 -2 12 -9z m2455
-27 c-1 -13 -30 -48 -30 -36 0 7 5 15 10 18 6 4 8 11 5 16 -4 5 -1 9 4 9 6 0
11 -3 11 -7z m-2375 -19 c-9 -9 -19 -13 -23 -10 -3 4 0 11 8 16 24 15 33 11
15 -6z m2475 -64 c5 8 12 11 17 7 11 -11 -17 -26 -49 -28 -16 -1 -37 -2 -48
-2 -11 -1 -20 3 -20 8 -1 14 62 23 78 11 9 -7 16 -5 22 4z"/>
<path d="M4990 8245 c-7 -14 -10 -28 -7 -31 4 -4 11 6 17 21 14 36 7 42 -10
10z"/>
<path d="M2555 6150 c-3 -5 -1 -10 4 -10 6 0 11 5 11 10 0 6 -2 10 -4 10 -3 0
-8 -4 -11 -10z"/>
<path d="M4200 6015 c0 -8 -5 -15 -10 -15 -6 0 -20 -8 -31 -18 -19 -19 -19
-19 1 -37 16 -15 23 -16 33 -6 9 9 9 14 -3 21 -15 9 -11 12 20 14 21 1 27 56
6 56 -9 0 -16 -7 -16 -15z"/>
<path d="M2001 4824 c0 -11 3 -14 6 -6 3 7 2 16 -1 19 -3 4 -6 -2 -5 -13z"/>
<path d="M5035 780 c-3 -5 -1 -10 4 -10 6 0 11 5 11 10 0 6 -2 10 -4 10 -3 0
-8 -4 -11 -10z"/>
<path d="M4982 743 c5 -25 28 -28 28 -4 0 12 -6 21 -16 21 -9 0 -14 -7 -12
-17z"/>
<path d="M2640 11819 c0 -5 5 -7 10 -4 6 3 10 8 10 11 0 2 -4 4 -10 4 -5 0
-10 -5 -10 -11z"/>
<path d="M2590 11790 c-13 -8 -13 -10 2 -10 9 0 20 5 23 10 8 13 -5 13 -25 0z"/>
<path d="M1725 11420 c-19 -8 -19 -9 3 -9 12 -1 22 4 22 9 0 6 -1 10 -2 9 -2
0 -12 -4 -23 -9z"/>
<path d="M1562 11383 c-6 -2 -9 -9 -6 -15 3 -5 -3 -12 -15 -15 -30 -8 -26 -20
7 -18 82 6 78 5 59 16 -14 8 -16 14 -6 25 9 11 8 14 -7 13 -11 0 -25 -3 -32
-6z"/>
<path d="M5810 10961 c0 -5 5 -13 10 -16 6 -3 10 -2 10 4 0 5 -4 13 -10 16 -5
3 -10 2 -10 -4z"/>
<path d="M926 10730 c-8 -16 -12 -30 -9 -30 11 0 42 43 37 51 -8 14 -11 11
-28 -21z"/>
<path d="M5660 9963 c0 -12 -3 -28 -6 -37 -3 -9 -2 -16 4 -16 13 0 23 53 11
65 -5 5 -9 1 -9 -12z"/>
<path d="M951 9861 c-1 -8 -11 -34 -22 -58 -21 -43 -21 -61 0 -48 6 3 11 15
11 26 0 10 4 19 9 19 15 0 21 29 11 52 -5 13 -9 17 -9 9z"/>
<path d="M922 9700 c0 -14 2 -19 5 -12 2 6 2 18 0 25 -3 6 -5 1 -5 -13z"/>
<path d="M5686 9615 c-10 -7 -16 -19 -14 -25 2 -7 15 -1 31 14 29 27 16 36
-17 11z"/>
<path d="M900 9405 c0 -8 4 -15 10 -15 5 0 7 7 4 15 -4 8 -8 15 -10 15 -2 0
-4 -7 -4 -15z"/>
<path d="M5282 9130 c0 -14 2 -19 5 -12 2 6 2 18 0 25 -3 6 -5 1 -5 -13z"/>
<path d="M17 8425 c-7 -16 8 -29 23 -20 10 6 2 35 -10 35 -4 0 -10 -7 -13 -15z"/>
<path d="M71 8414 c0 -11 3 -14 6 -6 3 7 2 16 -1 19 -3 4 -6 -2 -5 -13z"/>
<path d="M186 8421 c-4 -7 -5 -15 -2 -18 9 -9 19 4 14 18 -4 11 -6 11 -12 0z"/>
<path d="M95 8400 c3 -5 8 -10 11 -10 2 0 4 5 4 10 0 6 -5 10 -11 10 -5 0 -7
-4 -4 -10z"/>
<path d="M45 8370 c-3 -4 4 -10 16 -13 11 -3 19 -12 17 -21 -2 -8 0 -14 4 -13
4 1 13 -7 21 -17 10 -13 16 -15 21 -8 4 7 -1 22 -11 35 -20 27 -61 49 -68 37z"/>
<path d="M145 8356 c11 -8 24 -12 29 -8 5 3 1 9 -10 13 -31 12 -39 10 -19 -5z"/>
<path d="M450 8360 c0 -5 5 -10 10 -10 6 0 10 5 10 10 0 6 -4 10 -10 10 -5 0
-10 -4 -10 -10z"/>
<path d="M207 8353 c-4 -3 -7 -15 -7 -25 0 -16 3 -17 20 -8 22 12 27 40 7 40
-8 0 -17 -3 -20 -7z"/>
<path d="M335 8340 c-3 -5 -1 -10 4 -10 6 0 11 5 11 10 0 6 -2 10 -4 10 -3 0
-8 -4 -11 -10z"/>
<path d="M401 8314 c0 -11 3 -14 6 -6 3 7 2 16 -1 19 -3 4 -6 -2 -5 -13z"/>
<path d="M0 8284 c0 -14 5 -35 11 -46 8 -16 8 -23 -2 -30 -11 -7 -11 -9 1 -7
30 3 42 -1 38 -13 -3 -7 -10 -14 -16 -14 -35 -4 -36 -5 -19 -15 21 -12 23 -49
2 -49 -8 0 -15 -4 -15 -10 0 -5 7 -10 15 -10 8 0 15 -4 15 -10 0 -5 -7 -10
-15 -10 -8 0 -15 -5 -15 -11 0 -7 10 -9 25 -5 22 6 25 3 25 -19 0 -14 -4 -25
-10 -25 -5 0 -10 -7 -10 -15 0 -23 16 -18 34 10 14 21 24 25 66 25 28 0 50 -4
50 -9 0 -14 -23 -19 -55 -13 -24 4 -27 2 -21 -13 5 -14 2 -16 -14 -12 -23 6
-44 -23 -37 -51 4 -14 6 -13 12 6 5 15 15 22 31 22 13 0 24 5 24 10 0 6 16 10
35 10 22 0 38 6 41 15 9 22 33 18 43 -7 6 -15 5 -28 -4 -38 -7 -8 -10 -21 -8
-27 6 -17 -42 -35 -95 -35 -23 0 -40 -4 -37 -8 3 -5 12 -7 19 -4 7 3 18 -2 25
-10 7 -8 19 -12 27 -9 23 8 16 -10 -16 -44 -17 -18 -30 -35 -30 -39 0 -4 -16
-22 -35 -40 -19 -17 -35 -36 -35 -41 0 -6 37 -13 83 -15 92 -6 198 -33 210
-54 4 -8 11 -14 15 -14 9 0 32 49 32 68 0 8 12 0 27 -17 26 -29 52 -43 38 -21
-4 6 0 21 8 33 8 12 17 36 21 52 7 32 6 33 -76 37 -29 1 -33 22 -10 50 16 20
4 30 -19 17 -11 -5 -19 -21 -19 -35 0 -16 -5 -24 -12 -21 -15 4 -12 45 4 65 6
6 19 12 29 12 22 0 25 15 5 23 -8 3 -16 16 -18 29 -2 13 -9 24 -15 24 -7 1
-17 2 -23 3 -5 0 -10 8 -10 16 0 8 5 15 10 15 18 0 10 39 -13 64 -22 23 -25
24 -45 10 -16 -11 -27 -12 -39 -5 -10 6 -12 11 -5 11 6 0 12 7 12 16 0 13 3
14 13 5 17 -14 27 -4 27 25 0 29 10 54 21 54 5 0 6 -13 3 -29 -8 -39 12 -48
25 -11 5 17 17 30 25 30 9 0 16 5 16 10 0 6 -7 10 -15 10 -8 0 -15 5 -15 10 0
11 -100 8 -119 -4 -6 -4 -11 -2 -11 3 0 6 -7 11 -15 11 -8 0 -15 7 -15 16 0
10 -6 14 -15 10 -18 -7 -20 10 -2 17 9 4 9 7 -1 15 -7 5 -10 16 -6 26 5 13 9
14 20 5 18 -15 26 -8 14 11 -7 11 -13 12 -36 1 -22 -10 -29 -10 -35 1 -4 7
-12 9 -16 4 -4 -5 -2 -11 5 -13 15 -6 15 -34 0 -69 -10 -22 -10 -28 0 -32 14
-4 16 -32 2 -32 -5 0 -10 7 -10 15 0 8 -4 15 -9 15 -17 0 -21 33 -6 56 19 29
19 34 -1 34 -10 0 -14 6 -10 15 3 9 0 15 -10 15 -11 0 -15 -6 -11 -20 3 -11 1
-20 -4 -20 -12 0 -28 41 -22 58 3 6 -2 12 -11 12 -11 0 -16 -9 -16 -26z m73
-141 c4 -3 2 -12 -4 -20 -8 -8 -8 -13 -1 -13 6 0 12 6 15 13 4 9 7 9 18 -1 12
-11 11 -15 -3 -26 -10 -7 -18 -22 -18 -32 0 -14 -4 -12 -15 10 -23 44 -17 95
8 69z m137 -49 c0 -16 -16 -19 -25 -4 -8 13 4 32 16 25 5 -4 9 -13 9 -21z
m-65 -24 c3 -5 1 -10 -4 -10 -6 0 -11 5 -11 10 0 6 2 10 4 10 3 0 8 -4 11 -10z
m65 -16 c0 -15 -10 -17 -34 -8 -27 10 -19 32 9 26 14 -2 25 -11 25 -18z m-100
-5 c0 -6 -4 -7 -10 -4 -5 3 -10 11 -10 16 0 6 5 7 10 4 6 -3 10 -11 10 -16z
m245 -169 c3 -5 1 -10 -4 -10 -6 0 -11 -7 -11 -15 0 -8 -4 -15 -10 -15 -5 0
-9 11 -8 25 2 25 21 34 33 15z m63 -139 c8 -4 14 -12 13 -17 0 -5 9 -8 19 -7
17 2 18 0 8 -22 -11 -24 -28 -34 -28 -17 0 4 -10 18 -21 32 -11 14 -18 19 -14
13 4 -9 -1 -13 -14 -13 -23 0 -29 25 -8 33 19 8 31 8 45 -2z"/>
<path d="M330 8266 c6 -16 5 -27 -3 -35 -9 -9 -8 -14 3 -21 13 -8 13 -10 0
-10 -10 0 -7 -5 8 -16 12 -8 27 -12 33 -8 6 3 15 0 20 -7 7 -11 9 -10 9 4 0 9
5 17 10 17 6 0 10 7 10 15 0 19 -14 19 -34 -1 -15 -14 -16 -14 -16 5 0 12 -6
21 -13 21 -16 0 -17 41 -2 52 6 4 0 8 -12 8 -20 0 -21 -3 -13 -24z"/>
<path d="M278 8262 c-7 -11 -28 -23 -46 -26 -18 -4 -32 -14 -32 -22 0 -8 0
-17 -1 -21 0 -4 5 -9 11 -11 8 -3 10 3 5 17 -5 15 -2 21 9 21 9 0 16 -4 16
-10 0 -5 12 -10 28 -9 21 0 23 2 9 8 -17 6 -16 9 8 33 14 14 22 29 16 32 -5 4
-16 -2 -23 -12z"/>
<path d="M443 8263 c9 -2 23 -2 30 0 6 3 -1 5 -18 5 -16 0 -22 -2 -12 -5z"/>
<path d="M507 8205 c-10 -7 -14 -16 -9 -19 5 -3 15 1 22 9 17 21 9 27 -13 10z"/>
<path d="M530 8154 c0 -8 5 -12 10 -9 6 4 8 11 5 16 -9 14 -15 11 -15 -7z"/>
<path d="M495 8130 c3 -5 8 -10 11 -10 2 0 4 5 4 10 0 6 -5 10 -11 10 -5 0 -7
-4 -4 -10z"/>
<path d="M1655 8120 c3 -5 8 -10 11 -10 2 0 4 5 4 10 0 6 -5 10 -11 10 -5 0
-7 -4 -4 -10z"/>
<path d="M359 8113 c-8 -55 -5 -73 17 -92 19 -17 24 -18 24 -5 0 8 5 12 11 8
8 -4 8 -9 0 -17 -7 -7 -7 -14 -1 -23 8 -8 6 -14 -6 -18 -12 -4 -15 -2 -10 9 3
8 0 15 -6 15 -6 0 -17 8 -24 18 -18 23 -18 -1 -1 -36 51 -103 54 -107 88 -112
20 -3 38 -13 44 -25 31 -60 33 -61 51 -43 15 15 15 17 -5 27 -11 7 -21 20 -21
30 0 11 -8 22 -17 25 -14 6 -15 9 -4 15 19 12 3 33 -19 26 -10 -3 -21 -1 -25
5 -4 7 -18 9 -33 5 -21 -5 -23 -4 -14 8 7 8 8 17 4 22 -4 4 7 5 23 2 17 -4 24
-4 18 -1 -16 7 -17 44 -1 44 6 0 8 -3 5 -7 -4 -3 -2 -12 4 -20 8 -9 15 -10 24
-3 19 15 3 66 -18 62 -10 -2 -17 2 -17 8 0 5 -10 10 -22 10 -23 1 -23 1 -3 16
19 15 19 15 -10 12 -25 -2 -31 1 -33 20 -3 20 -21 32 -23 15z m109 -223 c3 -9
-1 -11 -12 -7 -10 4 -24 7 -32 7 -9 0 -12 4 -9 10 8 13 48 6 53 -10z"/>
<path d="M450 8100 c0 -5 5 -10 10 -10 6 0 10 5 10 10 0 6 -4 10 -10 10 -5 0
-10 -4 -10 -10z"/>
<path d="M568 8093 c-10 -2 -18 -9 -18 -14 0 -6 8 -5 20 1 11 6 20 13 20 15 0
3 -1 4 -2 4 -2 -1 -11 -3 -20 -6z"/>
<path d="M476 8075 c-3 -8 -2 -14 2 -13 21 4 39 -15 34 -38 -6 -31 6 -31 18 1
8 20 6 29 -10 45 -24 24 -36 25 -44 5z"/>
<path d="M625 8060 c-3 -5 -1 -10 4 -10 6 0 11 5 11 10 0 6 -2 10 -4 10 -3 0
-8 -4 -11 -10z"/>
<path d="M553 8035 c-3 -9 -3 -19 1 -22 3 -4 6 1 6 10 0 8 10 18 23 20 l22 4
-23 2 c-12 0 -25 -6 -29 -14z"/>
<path d="M630 8010 c0 -6 7 -10 15 -10 8 0 15 2 15 4 0 2 -7 6 -15 10 -8 3
-15 1 -15 -4z"/>
<path d="M1630 7986 c0 -14 5 -26 10 -26 6 0 10 9 10 19 0 11 -4 23 -10 26 -6
4 -10 -5 -10 -19z"/>
<path d="M540 7990 c-17 -4 -21 -8 -12 -14 6 -4 17 -4 22 -1 6 3 13 -1 16 -9
8 -22 27 -20 42 5 12 19 11 20 -9 14 -12 -4 -24 -3 -28 2 -3 5 -17 7 -31 3z"/>
<path d="M193 7974 c-7 -3 -9 -13 -6 -22 4 -13 2 -12 -10 3 -16 20 -16 20 -17
-2 0 -16 -6 -23 -20 -23 -11 0 -20 5 -20 10 0 6 -5 10 -11 10 -6 0 -9 -10 -7
-22 2 -16 10 -22 31 -23 15 0 27 3 27 7 0 4 7 5 15 2 10 -4 18 3 25 20 5 14
14 26 20 26 5 0 10 5 10 10 0 10 -16 12 -37 4z"/>
<path d="M495 7951 c-3 -5 -1 -12 5 -16 5 -3 10 1 10 9 0 18 -6 21 -15 7z"/>
<path d="M546 7942 c-4 -13 -5 -26 -2 -29 10 -11 18 4 14 29 l-4 23 -8 -23z"/>
<path d="M587 7910 c-22 -21 -12 -30 26 -23 26 5 39 23 16 23 -5 0 -7 5 -4 10
11 17 -19 10 -38 -10z"/>
<path d="M1626 7921 c-4 -7 -5 -15 -2 -18 9 -9 19 4 14 18 -4 11 -6 11 -12 0z"/>
<path d="M660 7889 c0 -14 20 -20 36 -11 14 8 12 10 -10 14 -14 3 -26 2 -26
-3z"/>
<path d="M750 7890 c0 -5 5 -10 10 -10 6 0 10 5 10 10 0 6 -4 10 -10 10 -5 0
-10 -4 -10 -10z"/>
<path d="M520 7881 c0 -5 10 -11 22 -14 17 -5 19 -9 9 -21 -10 -12 -6 -19 24
-41 29 -23 38 -25 50 -15 12 10 15 10 15 -3 0 -10 6 -14 15 -11 21 8 19 21 -4
27 -12 3 -21 15 -23 33 -4 36 -29 38 -39 4 -7 -24 -7 -24 -8 -2 -1 12 -5 22
-11 22 -5 0 -10 7 -10 15 0 8 -9 15 -20 15 -11 0 -20 -4 -20 -9z"/>
<path d="M640 7848 c0 -16 48 -39 55 -28 7 11 -23 40 -41 40 -8 0 -14 -6 -14
-12z"/>
<path d="M1621 7844 c0 -11 3 -14 6 -6 3 7 2 16 -1 19 -3 4 -6 -2 -5 -13z"/>
<path d="M120 7835 c0 -8 5 -15 10 -15 6 0 10 7 10 15 0 8 -4 15 -10 15 -5 0
-10 -7 -10 -15z"/>
<path d="M430 7815 c0 -8 7 -15 15 -15 8 0 15 7 15 15 0 8 -7 15 -15 15 -8 0
-15 -7 -15 -15z"/>
<path d="M1627 7780 c3 -11 9 -20 15 -20 5 0 4 9 -2 20 -6 11 -12 20 -14 20
-2 0 -2 -9 1 -20z"/>
<path d="M502 7768 c6 -17 36 -34 45 -24 4 4 -1 14 -11 22 -24 17 -39 18 -34
2z"/>
<path d="M560 7766 c0 -9 5 -16 10 -16 6 0 10 4 10 9 0 6 -4 13 -10 16 -5 3
-10 -1 -10 -9z"/>
<path d="M1640 7690 c0 -11 4 -20 9 -20 13 0 32 26 24 33 -13 14 -33 6 -33
-13z"/>
<path d="M490 7680 c0 -5 7 -10 15 -10 8 0 15 5 15 10 0 6 -7 10 -15 10 -8 0
-15 -4 -15 -10z"/>
<path d="M7 7603 c-4 -3 -7 -86 -7 -184 l0 -178 68 -21 c37 -12 109 -24 160
-27 84 -5 112 -15 80 -26 -7 -2 -3 -2 9 -1 12 2 25 0 28 -6 11 -18 90 -12 114
9 22 19 59 18 73 -3 6 -8 8 -8 8 0 0 6 -7 17 -15 24 -8 7 -15 17 -15 22 0 7 5
6 13 -1 8 -6 17 -8 21 -4 4 4 11 1 17 -7 7 -11 8 -8 3 12 -4 19 0 32 15 47 22
22 29 75 11 86 -5 3 -10 2 -10 -2 0 -5 -7 -18 -16 -29 -15 -19 -15 -19 -9 2 3
12 -5 41 -20 70 -14 27 -20 51 -15 52 6 2 10 8 10 14 0 7 -4 7 -13 0 -9 -8
-25 -1 -62 29 -28 21 -84 53 -125 70 -85 36 -80 35 -180 43 -41 4 -89 9 -106
12 -17 2 -33 1 -37 -3z m550 -343 c-6 -16 -15 -30 -19 -30 -12 0 -10 8 8 35
22 33 25 31 11 -5z"/>
<path d="M428 7543 c7 -3 16 -2 19 1 4 3 -2 6 -13 5 -11 0 -14 -3 -6 -6z"/>
<path d="M456 7524 c-5 -12 -2 -15 10 -10 11 4 15 2 11 -8 -4 -10 -1 -13 9 -9
17 6 18 15 2 31 -16 16 -25 15 -32 -4z"/>
<path d="M520 7480 c0 -5 5 -10 11 -10 5 0 7 5 4 10 -3 6 -8 10 -11 10 -2 0
-4 -4 -4 -10z"/>
<path d="M556 7431 c-4 -7 -5 -15 -2 -18 9 -9 19 4 14 18 -4 11 -6 11 -12 0z"/>
<path d="M550 7391 c0 -6 5 -13 10 -16 6 -3 10 1 10 9 0 9 -4 16 -10 16 -5 0
-10 -4 -10 -9z"/>
<path d="M596 7204 c-4 -10 -1 -14 6 -12 15 5 23 28 10 28 -5 0 -13 -7 -16
-16z"/>
<path d="M653 7199 c14 -22 27 -25 27 -5 0 7 -9 16 -19 19 -17 4 -18 2 -8 -14z"/>
<path d="M4920 7064 c0 -14 4 -23 10 -19 6 3 10 15 10 26 0 10 -4 19 -10 19
-5 0 -10 -12 -10 -26z"/>
<path d="M4853 6798 c-16 -21 -23 -47 -14 -53 5 -3 14 9 20 27 12 34 9 46 -6
26z"/>
<path d="M4146 5601 c-4 -6 -3 -19 3 -28 9 -17 10 -17 17 0 8 21 -10 45 -20
28z"/>
<path d="M4071 5531 c-7 -5 -10 -14 -6 -20 5 -9 10 -9 21 0 26 22 14 38 -15
20z"/>
<path d="M6286 5532 c-2 -4 -1 -14 5 -22 7 -12 9 -10 9 8 0 23 -5 28 -14 14z"/>
<path d="M4125 5490 c-3 -5 -2 -10 4 -10 5 0 13 5 16 10 3 6 2 10 -4 10 -5 0
-13 -4 -16 -10z"/>
<path d="M4338 5483 c7 -3 16 -2 19 1 4 3 -2 6 -13 5 -11 0 -14 -3 -6 -6z"/>
<path d="M4555 5480 c-3 -5 3 -10 15 -10 12 0 18 5 15 10 -3 6 -10 10 -15 10
-5 0 -12 -4 -15 -10z"/>
<path d="M4190 5469 c0 -5 5 -7 10 -4 6 3 10 8 10 11 0 2 -4 4 -10 4 -5 0 -10
-5 -10 -11z"/>
<path d="M4505 5470 c4 -6 11 -8 16 -5 14 9 11 15 -7 15 -8 0 -12 -5 -9 -10z"/>
<path d="M4686 5433 c-7 -7 13 -33 25 -33 5 0 9 6 9 14 0 15 -24 28 -34 19z"/>
<path d="M4946 5421 c-3 -5 1 -12 10 -15 22 -8 25 -4 9 11 -8 7 -16 9 -19 4z"/>
<path d="M1610 5085 c-11 -13 -10 -14 4 -9 9 3 16 10 16 15 0 13 -6 11 -20 -6z"/>
<path d="M5032 4943 c2 -20 8 -38 13 -40 7 -2 9 12 7 37 -2 22 -8 40 -14 40
-5 0 -8 -17 -6 -37z"/>
<path d="M5093 4958 c2 -7 10 -12 16 -10 7 1 10 -2 6 -8 -3 -5 3 -23 13 -38
11 -15 42 -68 69 -117 27 -50 78 -141 113 -203 59 -106 70 -141 35 -112 -13
11 -13 8 -4 -19 6 -17 15 -31 20 -31 5 0 9 -7 9 -15 0 -9 9 -15 23 -15 16 0
37 -21 81 -81 32 -44 55 -83 52 -86 -3 -4 -6 -1 -6 5 0 7 -11 12 -25 12 -15 0
-36 11 -49 25 -13 14 -27 25 -32 25 -4 0 -18 10 -31 22 -16 15 -23 17 -23 7 0
-8 14 -20 31 -28 17 -7 34 -23 39 -35 4 -11 24 -36 44 -54 35 -33 56 -35 56
-6 0 8 4 14 8 14 10 0 102 -95 102 -105 0 -4 9 -18 20 -32 12 -16 18 -34 15
-45 -4 -10 -2 -18 3 -18 6 0 12 5 14 12 3 7 13 5 31 -7 26 -17 37 -45 17 -45
-5 0 -10 -4 -10 -10 0 -14 11 -12 33 4 18 14 14 51 -4 40 -6 -3 -7 5 -3 22 5
19 4 25 -5 20 -6 -4 -8 -12 -5 -18 4 -6 2 -8 -4 -4 -7 4 -8 17 -2 37 8 27 6
31 -16 39 -14 6 -30 10 -35 10 -5 0 -9 4 -9 9 0 5 -3 17 -7 27 -5 13 -3 15 7
9 8 -5 11 -3 8 6 -3 8 -12 14 -20 14 -8 0 -22 6 -31 14 -9 7 -21 10 -26 7 -5
-4 -13 -1 -17 5 -4 8 -3 9 4 5 7 -4 12 -3 12 2 0 14 -26 33 -33 25 -4 -3 -7 1
-7 10 0 19 26 13 34 -9 3 -7 12 -11 20 -8 8 3 17 1 21 -5 3 -6 14 -11 23 -11
14 1 13 4 -5 19 -13 11 -23 24 -23 30 0 15 -17 14 -23 -1 -5 -12 -11 16 -8 35
1 4 -6 10 -14 13 -8 4 -15 12 -15 19 0 6 -9 20 -20 30 -11 10 -18 20 -15 23 3
3 0 11 -5 18 -6 6 -9 18 -8 25 3 13 -10 16 -42 8 -11 -3 -15 4 -14 26 0 17 -5
34 -13 38 -7 4 -13 19 -13 33 0 21 -4 24 -20 19 -16 -5 -20 -2 -20 17 0 13 -7
37 -16 53 -9 17 -13 42 -10 58 4 20 2 27 -9 27 -8 0 -15 7 -15 16 0 14 -3 14
-15 4 -12 -10 -15 -9 -15 8 0 11 6 23 13 26 6 4 3 5 -8 3 -16 -3 -21 2 -23 20
-1 13 -7 34 -14 46 l-13 22 -3 -22 c-5 -31 -14 -29 -34 7 -9 17 -24 30 -33 30
-8 0 -15 4 -15 8 0 5 -11 22 -24 37 -13 15 -22 33 -20 40 3 7 -5 15 -18 19
-36 9 -50 7 -45 -6z m477 -648 c0 -5 -4 -10 -10 -10 -5 0 -10 5 -10 10 0 6 5
10 10 10 6 0 10 -4 10 -10z"/>
<path d="M1496 4868 c-11 -47 -11 -57 -1 -59 12 -2 25 70 14 77 -5 3 -11 -5
-13 -18z"/>
<path d="M4962 4858 c3 -7 13 -15 24 -17 16 -3 17 -1 5 13 -16 19 -34 21 -29
4z"/>
<path d="M5470 4790 c0 -11 -7 -20 -16 -20 -8 0 -13 -4 -9 -9 3 -5 18 -8 33
-6 15 2 30 4 34 4 13 2 -2 26 -22 39 -17 11 -20 10 -20 -8z"/>
<path d="M487 4778 c-7 -24 8 -48 29 -48 17 0 17 8 2 43 -16 33 -24 34 -31 5z"/>
<path d="M580 4785 c-27 -10 -36 -19 -38 -41 -2 -16 -9 -32 -15 -36 -7 -5 -1
-8 15 -8 15 0 29 -4 33 -9 3 -5 19 -12 36 -16 17 -4 28 -9 26 -12 -3 -2 -21 0
-41 5 -49 14 -45 1 7 -26 41 -21 42 -21 45 -2 4 22 18 27 25 8 3 -9 12 -6 28
10 18 16 20 22 8 22 -10 0 -16 10 -17 28 -2 47 -8 64 -28 75 -27 16 -44 16
-84 2z m10 -55 c0 -5 -4 -10 -9 -10 -6 0 -13 5 -16 10 -3 6 1 10 9 10 9 0 16
-4 16 -10z m87 4 c-3 -3 -12 -4 -19 -1 -8 3 -5 6 6 6 11 1 17 -2 13 -5z"/>
<path d="M4930 4776 c0 -8 7 -16 15 -20 17 -6 18 -4 9 18 -8 20 -24 21 -24 2z"/>
<path d="M1502 4755 c0 -16 2 -22 5 -12 2 9 2 23 0 30 -3 6 -5 -1 -5 -18z"/>
<path d="M402 4753 c5 -26 38 -29 38 -4 0 15 -6 21 -21 21 -14 0 -19 -5 -17
-17z"/>
<path d="M5516 4735 c-3 -8 -1 -15 4 -15 13 0 22 18 11 24 -5 3 -11 -1 -15 -9z"/>
<path d="M770 4722 c0 -11 4 -23 10 -27 5 -3 7 -12 3 -20 -3 -9 1 -15 11 -15
23 0 20 36 -4 62 l-20 22 0 -22z"/>
<path d="M5650 4732 c0 -5 7 -17 16 -28 14 -17 15 -17 10 -1 -3 10 -6 23 -6
28 0 5 -4 9 -10 9 -5 0 -10 -4 -10 -8z"/>
<path d="M725 4721 c-3 -6 3 -15 12 -20 17 -10 17 -12 1 -21 -10 -6 -18 -22
-18 -36 0 -21 3 -23 19 -14 18 9 20 21 12 88 -1 14 -17 16 -26 3z"/>
<path d="M5770 4685 c-5 -14 -14 -25 -20 -25 -21 0 -9 -18 16 -24 26 -7 50 3
27 11 -8 3 -10 15 -6 34 7 36 -4 38 -17 4z"/>
<path d="M5700 4690 c0 -5 5 -10 11 -10 5 0 7 5 4 10 -3 6 -8 10 -11 10 -2 0
-4 -4 -4 -10z"/>
<path d="M1412 4681 c-1 -8 -11 -25 -23 -37 -16 -17 -17 -23 -6 -27 25 -9 39
9 34 44 -2 19 -5 28 -5 20z"/>
<path d="M860 4666 c0 -9 5 -16 10 -16 6 0 10 4 10 9 0 6 -4 13 -10 16 -5 3
-10 -1 -10 -9z"/>
<path d="M1015 4670 c3 -5 23 -10 43 -10 28 0 33 3 22 10 -20 13 -73 13 -65 0z"/>
<path d="M5536 4658 c8 -29 22 -46 45 -59 15 -7 13 0 -9 35 -29 49 -48 60 -36
24z"/>
<path d="M810 4614 c0 -14 4 -23 10 -19 6 3 10 15 10 26 0 10 -4 19 -10 19 -5
0 -10 -12 -10 -26z"/>
<path d="M861 4596 c-25 -51 -76 -76 -156 -76 l-50 0 35 -21 c33 -21 37 -21
77 -6 41 15 43 15 43 -3 0 -28 20 -25 48 8 13 15 21 22 18 15 -4 -7 1 -9 14
-6 22 6 18 23 -6 23 -15 0 -19 25 -5 34 11 7 20 66 10 71 -4 3 -17 -15 -28
-39z"/>
<path d="M1160 4631 c0 -17 26 -29 80 -36 68 -9 58 6 -19 29 -64 19 -61 18
-61 7z"/>
<path d="M6200 4621 c-21 -40 -1 -44 24 -6 14 21 14 25 2 25 -9 0 -20 -9 -26
-19z"/>
<path d="M88 4613 c-85 -4 -112 -14 -65 -27 35 -9 85 -7 92 4 3 6 20 10 38 10
24 0 28 -3 19 -12 -18 -18 -14 -31 8 -25 11 3 23 1 26 -4 3 -5 14 -9 25 -9 10
0 19 -6 19 -14 0 -20 26 -67 33 -60 3 4 20 2 36 -4 24 -9 34 -8 45 3 16 16 43
13 87 -9 24 -12 29 -12 29 -1 0 8 -5 17 -11 20 -6 4 -8 13 -5 20 2 7 -2 16
-10 19 -23 9 -17 28 7 21 12 -4 37 -7 58 -7 20 0 43 -3 51 -8 28 -14 70 -21
70 -11 0 5 -13 12 -30 16 -31 7 -36 14 -21 30 5 6 12 21 16 33 6 21 5 22 -12
14 -10 -5 -23 -7 -30 -5 -8 3 -11 -6 -10 -24 2 -25 -1 -28 -28 -25 -59 5 -141
21 -215 42 -67 19 -75 20 -86 6 -14 -20 -24 -20 -24 -1 0 8 -6 14 -12 13 -7
-1 -52 -4 -100 -5z m192 -42 c0 -6 15 -7 34 -4 19 3 36 1 40 -6 4 -6 15 -11
25 -11 10 0 29 -10 42 -21 l24 -22 -35 5 c-22 4 -38 0 -45 -8 -12 -16 -85 -8
-85 9 0 6 -7 18 -16 28 -9 10 -13 23 -9 28 8 14 25 14 25 2z"/>
<path d="M335 4550 c-3 -5 -1 -10 4 -10 6 0 11 5 11 10 0 6 -2 10 -4 10 -3 0
-8 -4 -11 -10z"/>
<path d="M6095 4610 c-11 -5 -14 -9 -7 -9 18 -1 4 -21 -15 -21 -9 0 -13 6 -9
15 8 22 -27 19 -48 -4 -17 -19 -16 -19 31 -19 55 1 83 12 83 33 0 17 -6 17
-35 5z"/>
<path d="M1323 4597 c-4 -7 -16 -16 -25 -20 -18 -6 -25 -27 -10 -27 13 0 56
49 50 56 -4 3 -10 -1 -15 -9z"/>
<path d="M1620 4600 c0 -5 5 -10 10 -10 6 0 10 5 10 10 0 6 -4 10 -10 10 -5 0
-10 -4 -10 -10z"/>
<path d="M6340 4595 c-16 -19 -2 -38 19 -26 9 6 10 14 4 25 -9 16 -11 16 -23
1z"/>
<path d="M5597 4557 c-4 -10 1 -24 14 -35 12 -12 17 -26 13 -38 -5 -16 -4 -16
5 -4 9 13 11 12 11 -6 0 -13 8 -24 20 -27 13 -3 20 0 20 9 0 8 10 14 22 14 17
0 12 6 -23 28 -24 16 -51 39 -60 52 -13 20 -16 21 -22 7z"/>
<path d="M5066 4552 c-3 -6 -1 -14 5 -17 6 -4 14 -17 19 -29 9 -21 9 -21 9 0
1 26 -23 61 -33 46z"/>
<path d="M5270 4543 c0 -12 5 -25 10 -28 13 -8 13 15 0 35 -8 12 -10 11 -10
-7z"/>
<path d="M1135 4520 c-10 -11 -13 -20 -8 -20 6 0 14 -16 17 -35 4 -19 11 -35
16 -35 14 0 80 91 74 101 -10 18 -80 10 -99 -11z"/>
<path d="M4900 4531 c0 -9 24 -21 42 -21 6 0 6 6 -2 15 -14 16 -40 20 -40 6z"/>
<path d="M6080 4530 c0 -5 5 -10 11 -10 5 0 7 5 4 10 -3 6 -8 10 -11 10 -2 0
-4 -4 -4 -10z"/>
<path d="M6234 4514 c-23 -14 -42 -34 -46 -51 -12 -43 -1 -40 44 10 45 51 59
59 51 26 -4 -16 -2 -20 8 -17 20 7 20 46 -1 51 -9 2 -34 -6 -56 -19z"/>
<path d="M1505 4519 c-4 -6 -5 -12 -2 -15 2 -3 7 2 10 11 7 17 1 20 -8 4z"/>
<path d="M5117 4492 c-4 -30 0 -40 19 -55 17 -13 24 -29 24 -53 0 -19 3 -34 8
-34 14 0 6 96 -11 133 -24 50 -34 53 -40 9z"/>
<path d="M6045 4510 c3 -5 8 -10 11 -10 2 0 4 5 4 10 0 6 -5 10 -11 10 -5 0
-7 -4 -4 -10z"/>
<path d="M530 4500 c0 -5 12 -10 28 -10 21 0 24 2 12 10 -20 13 -40 13 -40 0z"/>
<path d="M870 4480 c-8 -5 -11 -12 -7 -16 4 -4 13 -2 19 4 15 15 7 24 -12 12z"/>
<path d="M5570 4480 c0 -5 5 -10 10 -10 6 0 10 5 10 10 0 6 -4 10 -10 10 -5 0
-10 -4 -10 -10z"/>
<path d="M6330 4480 c0 -5 5 -10 10 -10 6 0 10 5 10 10 0 6 -4 10 -10 10 -5 0
-10 -4 -10 -10z"/>
<path d="M150 4464 c-14 -8 -18 -14 -10 -13 8 0 26 6 40 14 14 8 18 14 10 14
-8 -1 -26 -7 -40 -15z"/>
<path d="M1240 4470 c-8 -5 -12 -11 -9 -14 2 -3 11 -1 19 4 8 5 12 11 9 14 -2
3 -11 1 -19 -4z"/>
<path d="M22 4462 c-30 -9 -32 -18 -7 -36 27 -21 30 -20 43 9 18 39 15 41 -36
27z"/>
<path d="M1565 4460 c-3 -5 -1 -10 4 -10 6 0 11 5 11 10 0 6 -2 10 -4 10 -3 0
-8 -4 -11 -10z"/>
<path d="M5070 4450 c0 -11 5 -20 10 -20 6 0 10 9 10 20 0 11 -4 20 -10 20 -5
0 -10 -9 -10 -20z"/>
<path d="M6120 4463 c-42 -8 -47 -23 -7 -21 21 1 42 7 48 15 12 14 8 15 -41 6z"/>
<path d="M602 4448 c7 -19 35 -21 41 -3 5 11 0 15 -19 15 -16 0 -24 -5 -22
-12z"/>
<path d="M670 4450 c0 -5 5 -10 10 -10 6 0 10 5 10 10 0 6 -4 10 -10 10 -5 0
-10 -4 -10 -10z"/>
<path d="M6393 4405 c0 -27 2 -38 4 -22 2 15 2 37 0 50 -2 12 -4 0 -4 -28z"/>
<path d="M514 4424 c4 -11 -1 -18 -14 -21 -11 -3 -20 -9 -20 -13 0 -11 30 -21
41 -15 5 3 18 1 29 -5 26 -14 25 -4 -2 37 -24 34 -45 45 -34 17z"/>
<path d="M5960 4430 c0 -5 7 -10 15 -10 8 0 15 5 15 10 0 6 -7 10 -15 10 -8 0
-15 -4 -15 -10z"/>
<path d="M852 4421 c-21 -13 -10 -46 17 -49 19 -3 22 0 17 13 -3 9 -6 23 -6
31 0 16 -9 18 -28 5z"/>
<path d="M5030 4420 c0 -5 4 -10 9 -10 6 0 13 5 16 10 3 6 -1 10 -9 10 -9 0
-16 -4 -16 -10z"/>
<path d="M1105 4410 c-7 -11 2 -30 15 -30 4 0 10 6 13 14 6 16 -19 30 -28 16z"/>
<path d="M790 4397 c0 -20 -4 -21 -30 -5 -10 7 -22 9 -26 5 -11 -10 26 -47 47
-47 21 0 35 38 20 53 -8 8 -11 6 -11 -6z"/>
<path d="M5099 4410 c-1 -3 -3 -25 -4 -50 -2 -43 15 -80 37 -80 17 0 8 85 -12
110 -11 14 -20 23 -21 20z"/>
<path d="M5027 4370 c-3 -14 1 -24 15 -31 25 -14 32 -6 24 26 -8 30 -32 33
-39 5z"/>
<path d="M960 4365 c0 -9 6 -12 15 -9 8 4 15 10 15 15 0 5 -7 9 -15 9 -8 0
-15 -7 -15 -15z"/>
<path d="M5790 4369 c0 -7 -9 -9 -24 -5 -16 4 -26 1 -29 -8 -3 -7 -26 -17 -51
-20 -25 -4 -46 -11 -46 -15 0 -5 9 -20 20 -34 11 -14 20 -28 20 -31 0 -10 40
-46 51 -46 6 0 22 -9 36 -20 14 -11 32 -20 39 -20 8 0 14 -4 14 -10 0 -5 -6
-10 -14 -10 -22 0 -40 -28 -27 -43 7 -10 7 -17 0 -24 -19 -19 -1 -48 39 -66
43 -19 92 -23 92 -7 0 6 12 10 26 10 22 0 25 -2 14 -15 -7 -8 -16 -13 -20 -10
-4 3 -10 -2 -13 -9 -3 -8 -1 -17 6 -20 7 -4 -1 -3 -18 0 l-30 6 24 -25 c12
-14 20 -30 16 -36 -3 -6 -1 -11 4 -11 6 0 11 12 11 27 0 39 9 23 12 -23 3 -29
9 -41 26 -49 13 -6 22 -19 22 -31 0 -12 7 -24 15 -28 24 -9 17 -26 -10 -26
-26 0 -65 35 -65 58 0 9 -7 11 -20 7 -14 -4 -20 -2 -20 8 0 8 -7 17 -15 21
-23 9 -18 -12 10 -36 14 -12 25 -30 25 -40 0 -10 9 -28 21 -41 22 -26 59 -26
80 -1 15 18 29 18 29 -1 0 -8 5 -15 10 -15 6 0 10 -7 10 -15 0 -8 5 -16 10
-16 6 -1 15 -3 20 -4 6 -1 15 -3 21 -4 8 -1 8 -5 0 -15 -15 -18 -4 -25 49 -30
26 -2 46 -10 52 -20 5 -9 20 -16 33 -16 13 0 27 -5 30 -11 11 -17 -3 -23 -20
-9 -12 10 -21 10 -45 0 -38 -16 -31 -26 22 -33 51 -7 108 16 108 44 0 11 7 17
18 16 17 -1 28 -27 12 -27 -11 0 -66 -54 -73 -72 -4 -10 -11 -18 -17 -18 -6 0
-8 -5 -5 -11 4 -6 -2 -13 -14 -16 -36 -9 -23 -23 22 -23 32 0 49 6 63 21 19
22 19 22 -8 15 -23 -5 -28 -3 -28 11 0 12 3 14 8 6 5 -8 12 -8 27 3 17 13 18
16 5 25 -13 9 -13 10 0 6 8 -2 15 -11 15 -21 0 -9 6 -21 14 -25 9 -6 10 -11 2
-15 -6 -4 -8 -12 -5 -18 4 -6 8 -22 10 -35 2 -18 -1 -23 -12 -19 -12 5 -14 1
-9 -15 6 -17 4 -20 -6 -13 -23 14 -41 13 -35 -2 3 -8 -1 -14 -8 -14 -8 0 -16
7 -20 15 -7 19 -36 20 -36 1 0 -7 6 -19 14 -26 8 -6 16 -21 18 -33 3 -19 10
-22 54 -23 l51 -2 2 435 2 434 -38 -25 c-21 -14 -43 -26 -50 -26 -7 0 -13 -7
-13 -16 0 -10 -6 -14 -15 -10 -9 3 -15 0 -15 -8 0 -8 -7 -16 -15 -20 -12 -4
-14 0 -9 19 8 31 -15 34 -41 5 -20 -22 -35 -18 -35 11 0 16 -7 19 -42 19 -39
0 -40 1 -22 15 17 13 18 14 1 15 -10 0 -20 -7 -23 -15 -4 -8 -15 -15 -26 -15
-11 0 -28 -5 -40 -11 -18 -9 -19 -8 -13 10 5 17 3 20 -12 14 -16 -6 -16 -5 -4
10 7 9 23 17 35 17 26 0 41 10 48 31 5 13 2 16 -14 11 -20 -5 -20 -4 -4 20 9
14 25 28 35 31 10 2 20 13 23 25 5 19 4 19 -42 -4 -56 -28 -90 -31 -90 -8 0
13 -3 14 -15 4 -8 -7 -22 -10 -30 -6 -8 3 -15 1 -15 -4 0 -6 -5 -10 -11 -10
-6 0 -8 13 -5 30 4 26 1 31 -22 36 -15 3 -33 8 -40 10 -9 3 -11 -2 -7 -15 5
-15 1 -18 -20 -13 -16 3 -24 10 -21 17 2 7 -1 18 -7 24 -11 11 -10 11 42 15
24 2 23 23 -1 30 -32 8 -38 8 -38 -5z m57 -241 c-3 -8 -6 -5 -6 6 -1 11 2 17
5 13 3 -3 4 -12 1 -19z m182 -298 c-6 -16 -15 -27 -20 -24 -5 3 -8 8 -6 12 2
4 7 15 10 25 4 9 11 17 16 17 6 0 6 -11 0 -30z"/>
<path d="M1485 4352 c-46 -41 -56 -58 -46 -83 10 -24 10 -24 10 4 1 19 13 39
39 62 37 35 35 50 -3 17z"/>
<path d="M695 4340 c-8 -13 15 -24 27 -12 6 6 4 11 -6 15 -8 3 -18 2 -21 -3z"/>
<path d="M1113 4325 c-13 -30 -6 -31 25 -6 27 23 28 31 5 31 -10 0 -23 -11
-30 -25z"/>
<path d="M157 4320 c4 -16 -2 -23 -31 -35 -50 -21 -45 -30 15 -28 61 3 67 7
51 33 -7 11 -12 27 -12 35 0 8 -6 15 -14 15 -9 0 -12 -7 -9 -20z"/>
<path d="M1180 4325 c0 -8 5 -15 10 -15 6 0 10 7 10 15 0 8 -4 15 -10 15 -5 0
-10 -7 -10 -15z"/>
<path d="M6383 4324 c-7 -12 -24 -25 -39 -28 -25 -7 -26 -8 -9 -26 17 -19 17
-20 0 -26 -10 -4 -26 -2 -36 4 -28 17 -44 15 -29 -3 7 -8 26 -15 41 -15 22 0
32 -6 39 -25 10 -27 17 -30 38 -16 9 5 12 29 10 82 -3 64 -5 71 -15 53z m-13
-44 c0 -5 -5 -10 -11 -10 -5 0 -7 5 -4 10 3 6 8 10 11 10 2 0 4 -4 4 -10z"/>
<path d="M1515 4320 c-3 -5 -1 -10 4 -10 6 0 11 5 11 10 0 6 -2 10 -4 10 -3 0
-8 -4 -11 -10z"/>
<path d="M5230 4324 c0 -3 7 -18 16 -33 23 -39 93 -67 108 -42 6 9 -27 43 -40
40 -26 -4 -35 2 -29 21 5 17 2 20 -24 20 -17 0 -31 -3 -31 -6z"/>
<path d="M5947 4316 c-12 -9 -14 -16 -7 -21 12 -7 40 11 40 26 0 13 -12 11
-33 -5z"/>
<path d="M6041 4317 c-28 -14 -34 -26 -22 -46 11 -18 31 -5 31 20 0 12 7 19
20 19 11 0 20 5 20 10 0 13 -20 12 -49 -3z"/>
<path d="M585 4310 c-3 -5 1 -10 10 -10 9 0 13 5 10 10 -3 6 -8 10 -10 10 -2
0 -7 -4 -10 -10z"/>
<path d="M55 4301 c-29 -9 -61 -29 -55 -35 7 -7 75 17 79 27 4 13 -2 14 -24 8z"/>
<path d="M845 4299 c-4 -6 -5 -12 -2 -15 7 -7 37 7 37 17 0 13 -27 11 -35 -2z"/>
<path d="M6232 4294 c14 -14 21 -15 30 -6 8 8 9 12 1 12 -6 0 -20 3 -30 6 -17
7 -17 6 -1 -12z"/>
<path d="M772 4263 c2 -13 -3 -17 -19 -16 -13 2 -23 -2 -23 -7 0 -18 81 -15
92 4 8 12 -18 36 -39 36 -8 0 -13 -8 -11 -17z"/>
<path d="M40 4266 c0 -2 9 -6 20 -9 11 -3 18 -1 14 4 -5 9 -34 13 -34 5z"/>
<path d="M5160 4259 c0 -6 9 -13 19 -16 13 -3 18 -10 13 -21 -5 -15 -4 -15 11
-3 16 13 16 15 1 32 -19 21 -44 25 -44 8z"/>
<path d="M13 4249 c-16 -16 -17 -49 -3 -49 13 0 23 24 18 45 -2 13 -5 14 -15
4z"/>
<path d="M1485 4251 c-3 -5 -1 -12 5 -16 5 -3 10 1 10 9 0 18 -6 21 -15 7z"/>
<path d="M223 4228 c-21 -24 -37 -58 -27 -58 6 0 74 71 74 77 0 12 -30 -1 -47
-19z"/>
<path d="M580 4229 c0 -18 2 -19 15 -9 15 12 12 30 -6 30 -5 0 -9 -10 -9 -21z"/>
<path d="M908 4235 c-17 -10 -29 -11 -33 -5 -12 20 -25 10 -25 -19 0 -19 -8
-36 -23 -48 -12 -10 -21 -25 -19 -34 2 -9 -4 -19 -13 -22 -9 -4 -15 -1 -15 7
0 18 -49 27 -73 14 -26 -14 -2 -41 31 -35 15 3 26 -1 30 -12 11 -26 41 -21 63
10 11 16 30 29 41 29 20 0 20 -1 3 -26 -12 -18 -14 -29 -6 -37 7 -7 12 -2 17
17 3 14 9 26 13 26 10 0 44 61 37 67 -3 4 -6 1 -6 -5 0 -7 -4 -12 -10 -12 -5
0 -7 7 -3 16 5 14 3 15 -16 4 -25 -13 -36 -8 -28 13 9 23 44 26 66 6 20 -19
20 -19 32 3 11 21 11 22 -4 9 -15 -12 -17 -10 -17 18 0 35 -4 36 -42 16z"/>
<path d="M1386 4227 c-11 -8 -17 -19 -15 -25 5 -14 50 6 57 26 5 16 -19 15
-42 -1z"/>
<path d="M4950 4220 c0 -5 5 -10 10 -10 6 0 10 5 10 10 0 6 -4 10 -10 10 -5 0
-10 -4 -10 -10z"/>
<path d="M504 4180 c1 -50 20 -47 24 3 2 27 -1 37 -11 37 -10 0 -14 -11 -13
-40z"/>
<path d="M1456 4183 c-14 -20 -24 -38 -23 -40 7 -6 46 10 41 18 -3 5 6 14 20
21 14 6 26 15 26 20 0 5 -4 6 -10 3 -5 -3 -10 -1 -10 4 0 22 -20 10 -44 -26z"/>
<path d="M283 4189 c6 -23 -2 -28 -62 -31 -24 -2 -46 -9 -49 -16 -2 -6 3 -12
12 -12 18 0 21 -15 6 -25 -6 -4 -21 -8 -35 -11 l-24 -4 19 46 c25 57 25 54 -5
54 -19 0 -30 -10 -45 -41 -19 -36 -20 -43 -7 -62 13 -21 12 -23 -24 -40 -47
-22 -52 -47 -10 -47 29 0 29 0 15 -30 -9 -17 -14 -37 -12 -46 4 -21 34 -41 45
-30 4 5 2 11 -4 13 -7 3 -13 16 -13 29 0 19 9 29 33 40 66 30 159 111 116 102
-8 -2 -15 6 -17 18 -4 26 40 58 68 49 49 -16 62 -61 14 -49 -14 4 -24 2 -24
-5 0 -6 9 -11 20 -11 11 0 20 -7 20 -15 0 -22 23 -18 38 6 10 15 17 18 24 11
8 -8 7 -16 -2 -27 -8 -10 -9 -15 -1 -15 6 0 11 -6 11 -13 0 -8 11 -24 24 -36
18 -17 29 -20 41 -14 15 9 15 11 1 22 -9 8 -16 21 -16 30 0 9 -5 22 -12 29
-22 22 -1 23 39 2 34 -17 43 -18 66 -7 15 6 29 19 32 28 3 9 15 19 27 23 35 8
16 16 -24 10 -25 -5 -35 -11 -31 -20 7 -19 -24 -29 -50 -16 -34 16 -77 21 -77
8 0 -6 -4 -5 -9 3 -5 8 -7 20 -4 28 3 7 0 13 -6 13 -6 0 -11 7 -11 15 0 25
-47 65 -76 65 -22 0 -25 -4 -21 -21z"/>
<path d="M3 4175 c-9 -25 4 -29 17 -6 7 15 7 21 0 21 -6 0 -13 -7 -17 -15z"/>
<path d="M5734 4179 c-9 -16 12 -33 31 -25 14 5 15 9 5 21 -15 18 -26 19 -36
4z"/>
<path d="M6156 4174 c-8 -21 -8 -24 5 -24 11 0 39 24 39 34 0 13 -38 5 -44
-10z"/>
<path d="M567 4174 c-9 -10 2 -24 19 -24 8 0 14 7 14 15 0 15 -21 21 -33 9z"/>
<path d="M5200 4171 c0 -5 5 -13 10 -16 6 -3 10 -2 10 4 0 5 -4 13 -10 16 -5
3 -10 2 -10 -4z"/>
<path d="M6230 4170 c0 -6 11 -8 28 -4 39 10 40 14 4 14 -18 0 -32 -5 -32 -10z"/>
<path d="M5300 4140 c0 -25 6 -30 47 -44 65 -22 85 -21 53 4 -14 11 -30 20
-36 20 -6 0 -23 11 -38 25 l-26 24 0 -29z"/>
<path d="M410 4133 c1 -27 1 -27 15 -9 19 25 19 36 0 36 -10 0 -15 -10 -15
-27z"/>
<path d="M5470 4154 c0 -14 49 -33 56 -22 8 12 4 15 -29 23 -15 4 -27 3 -27
-1z"/>
<path d="M5570 4120 c0 -15 7 -20 25 -20 29 0 31 6 11 26 -20 20 -36 17 -36
-6z"/>
<path d="M5195 4120 c-3 -6 -4 -19 0 -29 3 -11 1 -22 -4 -25 -11 -7 -4 -36 9
-36 13 0 20 43 9 56 -5 6 -7 19 -3 28 7 18 -1 22 -11 6z"/>
<path d="M5235 4110 c-3 -5 1 -10 9 -10 8 0 18 5 21 10 3 6 -1 10 -9 10 -8 0
-18 -4 -21 -10z"/>
<path d="M5057 4094 c-9 -9 4 -35 14 -28 5 3 9 12 9 20 0 14 -12 19 -23 8z"/>
<path d="M670 4070 c12 -22 44 -42 53 -33 9 8 -35 53 -51 53 -10 0 -10 -5 -2
-20z"/>
<path d="M590 4075 c0 -16 25 -55 34 -52 20 7 12 40 -11 48 -13 5 -23 6 -23 4z"/>
<path d="M5435 4070 c3 -5 8 -10 11 -10 2 0 4 5 4 10 0 6 -5 10 -11 10 -5 0
-7 -4 -4 -10z"/>
<path d="M13 4063 c-7 -3 -13 -14 -13 -25 0 -18 1 -18 16 -4 18 18 16 35 -3
29z"/>
<path d="M476 4021 c-4 -5 -2 -12 3 -15 5 -4 12 -2 15 3 4 5 2 12 -3 15 -5 4
-12 2 -15 -3z"/>
<path d="M665 4020 c-9 -15 -1 -23 21 -18 15 3 16 4 1 16 -11 9 -17 10 -22 2z"/>
<path d="M5220 4010 c0 -20 16 -30 73 -44 20 -5 27 -3 27 9 0 8 -11 17 -24 21
-17 4 -23 11 -19 22 4 15 3 15 -6 2 -8 -12 -13 -12 -23 -2 -18 18 -28 15 -28
-8z"/>
<path d="M199 4003 c-40 -51 -60 -123 -33 -123 8 0 13 -6 12 -12 -2 -7 7 -14
20 -16 15 -2 22 2 22 12 0 9 -7 16 -15 16 -8 0 -15 5 -15 10 0 6 6 10 14 10
19 0 55 76 49 100 -7 25 -35 26 -54 3z"/>
<path d="M5550 4016 c0 -2 15 -15 34 -30 26 -19 34 -22 32 -10 -3 20 -66 58
-66 40z"/>
<path d="M720 3990 c0 -5 7 -10 16 -10 8 0 12 5 9 10 -3 6 -10 10 -16 10 -5 0
-9 -4 -9 -10z"/>
<path d="M5790 3947 c0 -14 4 -16 19 -7 30 16 32 25 5 25 -16 0 -24 -6 -24
-18z"/>
<path d="M600 3950 c0 -5 7 -10 16 -10 8 0 12 5 9 10 -3 6 -10 10 -16 10 -5 0
-9 -4 -9 -10z"/>
<path d="M5822 3931 c-9 -6 -8 -12 8 -26 20 -18 24 -13 12 17 -4 11 -12 14
-20 9z"/>
<path d="M5750 3914 c0 -17 22 -14 28 4 2 7 -3 12 -12 12 -9 0 -16 -7 -16 -16z"/>
<path d="M0 3877 c0 -23 4 -27 18 -23 20 7 72 -31 72 -52 0 -7 9 -12 19 -12
17 0 19 4 10 28 -10 28 -64 67 -88 63 -8 -1 -18 3 -22 11 -6 9 -9 4 -9 -15z"/>
<path d="M248 3868 c-24 -48 -30 -86 -15 -91 6 -2 9 -8 4 -12 -4 -5 -13 -3
-19 3 -7 7 -18 12 -25 12 -19 0 6 -38 29 -46 22 -7 23 -40 2 -52 -15 -8 -14
-10 2 -16 29 -11 39 11 39 92 0 73 1 77 23 80 23 4 23 4 5 24 -10 11 -17 23
-15 26 2 4 0 8 -5 9 -5 2 -16 -12 -25 -29z"/>
<path d="M320 3830 c0 -5 5 -10 10 -10 6 0 10 5 10 10 0 6 -4 10 -10 10 -5 0
-10 -4 -10 -10z"/>
<path d="M326 3773 c-17 -22 -16 -23 7 -14 13 5 32 9 42 8 30 -3 28 20 -3 25
-21 3 -33 -2 -46 -19z"/>
<path d="M355 3680 c-3 -5 -1 -10 4 -10 6 0 11 5 11 10 0 6 -2 10 -4 10 -3 0
-8 -4 -11 -10z"/>
<path d="M5936 3654 c-4 -10 -1 -14 6 -12 15 5 23 28 10 28 -5 0 -13 -7 -16
-16z"/>
<path d="M5970 3625 c0 -8 7 -15 15 -15 8 0 15 -4 15 -10 0 -13 47 -13 55 -1
3 5 -7 11 -22 13 -16 2 -27 8 -25 16 1 6 -7 12 -18 12 -11 0 -20 -7 -20 -15z"/>
<path d="M6136 3620 c7 -7 19 -7 35 -1 23 9 22 10 -10 10 -24 1 -32 -2 -25 -9z"/>
<path d="M6095 3599 c-4 -6 -5 -13 -2 -16 7 -7 27 6 27 18 0 12 -17 12 -25 -2z"/>
<path d="M6108 3558 c-30 -10 -38 -28 -13 -28 8 0 15 -6 16 -12 0 -7 4 -3 9
10 5 12 14 22 20 22 5 0 10 5 10 10 0 12 -6 12 -42 -2z"/>
<path d="M5960 3546 c0 -16 28 -42 36 -33 7 6 -18 47 -28 47 -5 0 -8 -6 -8
-14z"/>
<path d="M6035 3499 c-11 -17 1 -21 15 -4 8 9 8 15 2 15 -6 0 -14 -5 -17 -11z"/>
<path d="M34 3484 c3 -9 6 -18 6 -20 0 -13 19 -1 23 16 4 15 0 20 -15 20 -14
0 -18 -5 -14 -16z"/>
<path d="M80 3486 c0 -9 5 -16 10 -16 6 0 10 4 10 9 0 6 -4 13 -10 16 -5 3
-10 -1 -10 -9z"/>
<path d="M6064 3475 c-19 -14 -16 -17 21 -19 14 -1 21 -9 23 -26 2 -16 13 -30
29 -37 32 -16 63 -17 63 -3 0 6 -9 10 -21 10 -27 0 -19 24 9 28 25 4 47 37 36
54 -5 7 -10 4 -15 -10 -7 -18 -14 -20 -45 -16 -21 2 -45 11 -54 19 -20 18 -22
18 -46 0z"/>
<path d="M5915 3390 c-3 -5 1 -10 10 -10 9 0 13 5 10 10 -3 6 -8 10 -10 10 -2
0 -7 -4 -10 -10z"/>
<path d="M6086 3382 c-7 -12 40 -52 62 -52 9 0 27 8 40 18 l23 18 -39 -4 c-26
-3 -42 1 -51 12 -15 18 -27 20 -35 8z"/>
<path d="M6225 3331 c-6 -10 21 -41 35 -41 17 0 20 19 4 34 -18 18 -30 20 -39
7z"/>
<path d="M5980 3306 c0 -2 7 -9 15 -16 13 -11 14 -10 9 4 -5 14 -24 23 -24 12z"/>
<path d="M6280 3270 c0 -5 5 -10 11 -10 5 0 7 5 4 10 -3 6 -8 10 -11 10 -2 0
-4 -4 -4 -10z"/>
<path d="M6230 3246 c0 -2 9 -6 20 -9 11 -3 18 -1 14 4 -5 9 -34 13 -34 5z"/>
<path d="M6070 3230 c0 -5 5 -10 10 -10 6 0 10 5 10 10 0 6 -4 10 -10 10 -5 0
-10 -4 -10 -10z"/>
<path d="M6190 3222 c0 -4 6 -14 13 -21 10 -11 10 -14 0 -18 -7 -3 -13 -9 -13
-15 0 -6 7 -8 15 -4 8 3 15 2 15 -2 0 -4 34 -7 75 -8 49 0 75 3 75 10 0 7 -15
10 -40 8 -33 -3 -46 1 -75 27 -34 29 -65 40 -65 23z"/>
<path d="M6274 3212 c4 -7 16 -12 26 -12 10 0 22 -4 25 -10 8 -13 18 -13 38 3
16 11 15 12 -5 13 -13 1 -38 5 -57 9 -25 6 -32 5 -27 -3z"/>
<path d="M6102 3163 c4 -22 48 -31 48 -10 0 14 -20 27 -42 27 -5 0 -8 -8 -6
-17z"/>
<path d="M6260 3139 c0 -5 14 -15 30 -20 17 -6 30 -15 30 -20 0 -13 28 -11 36
3 9 15 -25 40 -47 33 -10 -3 -20 -1 -24 5 -8 13 -25 13 -25 -1z"/>
<path d="M6375 3066 c-18 -13 -18 -14 3 -41 l22 -28 0 42 c0 46 0 46 -25 27z"/>
<path d="M6124 2961 c10 -16 46 -20 46 -5 0 8 -10 14 -26 14 -14 0 -23 -4 -20
-9z"/>
<path d="M6391 2864 c0 -11 3 -14 6 -6 3 7 2 16 -1 19 -3 4 -6 -2 -5 -13z"/>
<path d="M6345 2640 c-8 -13 5 -13 25 0 13 8 13 10 -2 10 -9 0 -20 -4 -23 -10z"/>
<path d="M6270 2310 c0 -5 5 -10 11 -10 5 0 7 5 4 10 -3 6 -8 10 -11 10 -2 0
-4 -4 -4 -10z"/>
</g>
</svg>
